%TF.GenerationSoftware,KiCad,Pcbnew,8.0.0*%
%TF.CreationDate,2024-03-17T16:56:24+08:00*%
%TF.ProjectId,bigger-brain,62696767-6572-42d6-9272-61696e2e6b69,2*%
%TF.SameCoordinates,Original*%
%TF.FileFunction,Paste,Top*%
%TF.FilePolarity,Positive*%
%FSLAX46Y46*%
G04 Gerber Fmt 4.6, Leading zero omitted, Abs format (unit mm)*
G04 Created by KiCad (PCBNEW 8.0.0) date 2024-03-17 16:56:24*
%MOMM*%
%LPD*%
G01*
G04 APERTURE LIST*
G04 Aperture macros list*
%AMRoundRect*
0 Rectangle with rounded corners*
0 $1 Rounding radius*
0 $2 $3 $4 $5 $6 $7 $8 $9 X,Y pos of 4 corners*
0 Add a 4 corners polygon primitive as box body*
4,1,4,$2,$3,$4,$5,$6,$7,$8,$9,$2,$3,0*
0 Add four circle primitives for the rounded corners*
1,1,$1+$1,$2,$3*
1,1,$1+$1,$4,$5*
1,1,$1+$1,$6,$7*
1,1,$1+$1,$8,$9*
0 Add four rect primitives between the rounded corners*
20,1,$1+$1,$2,$3,$4,$5,0*
20,1,$1+$1,$4,$5,$6,$7,0*
20,1,$1+$1,$6,$7,$8,$9,0*
20,1,$1+$1,$8,$9,$2,$3,0*%
G04 Aperture macros list end*
%ADD10R,0.750000X1.000000*%
%ADD11RoundRect,0.225000X-0.250000X0.225000X-0.250000X-0.225000X0.250000X-0.225000X0.250000X0.225000X0*%
%ADD12RoundRect,0.250000X0.475000X-0.250000X0.475000X0.250000X-0.475000X0.250000X-0.475000X-0.250000X0*%
%ADD13RoundRect,0.375000X-0.625000X-0.375000X0.625000X-0.375000X0.625000X0.375000X-0.625000X0.375000X0*%
%ADD14RoundRect,0.500000X-0.500000X-1.400000X0.500000X-1.400000X0.500000X1.400000X-0.500000X1.400000X0*%
%ADD15R,3.810000X4.240000*%
%ADD16RoundRect,0.075000X-0.662500X-0.075000X0.662500X-0.075000X0.662500X0.075000X-0.662500X0.075000X0*%
%ADD17RoundRect,0.075000X-0.075000X-0.662500X0.075000X-0.662500X0.075000X0.662500X-0.075000X0.662500X0*%
%ADD18RoundRect,0.250000X0.250000X0.475000X-0.250000X0.475000X-0.250000X-0.475000X0.250000X-0.475000X0*%
%ADD19RoundRect,0.200000X0.200000X0.275000X-0.200000X0.275000X-0.200000X-0.275000X0.200000X-0.275000X0*%
%ADD20RoundRect,0.150000X0.825000X0.150000X-0.825000X0.150000X-0.825000X-0.150000X0.825000X-0.150000X0*%
%ADD21RoundRect,0.225000X0.250000X-0.225000X0.250000X0.225000X-0.250000X0.225000X-0.250000X-0.225000X0*%
%ADD22RoundRect,0.218750X-0.218750X-0.256250X0.218750X-0.256250X0.218750X0.256250X-0.218750X0.256250X0*%
%ADD23RoundRect,0.200000X-0.275000X0.200000X-0.275000X-0.200000X0.275000X-0.200000X0.275000X0.200000X0*%
%ADD24RoundRect,0.218750X0.218750X0.256250X-0.218750X0.256250X-0.218750X-0.256250X0.218750X-0.256250X0*%
%ADD25RoundRect,0.250000X-0.475000X0.250000X-0.475000X-0.250000X0.475000X-0.250000X0.475000X0.250000X0*%
%ADD26RoundRect,0.250000X-0.250000X-0.475000X0.250000X-0.475000X0.250000X0.475000X-0.250000X0.475000X0*%
%ADD27R,1.400000X1.200000*%
%ADD28RoundRect,0.225000X-0.225000X-0.250000X0.225000X-0.250000X0.225000X0.250000X-0.225000X0.250000X0*%
%ADD29RoundRect,0.200000X-0.200000X-0.275000X0.200000X-0.275000X0.200000X0.275000X-0.200000X0.275000X0*%
%ADD30RoundRect,0.250000X0.650000X-1.000000X0.650000X1.000000X-0.650000X1.000000X-0.650000X-1.000000X0*%
%ADD31RoundRect,0.250000X-0.625000X0.312500X-0.625000X-0.312500X0.625000X-0.312500X0.625000X0.312500X0*%
%ADD32R,1.450000X0.600000*%
%ADD33R,1.450000X0.300000*%
%ADD34R,1.800000X1.000000*%
%ADD35RoundRect,0.250000X-0.262500X-0.450000X0.262500X-0.450000X0.262500X0.450000X-0.262500X0.450000X0*%
%ADD36RoundRect,0.250000X1.000000X0.650000X-1.000000X0.650000X-1.000000X-0.650000X1.000000X-0.650000X0*%
%ADD37RoundRect,0.225000X0.225000X0.250000X-0.225000X0.250000X-0.225000X-0.250000X0.225000X-0.250000X0*%
%ADD38RoundRect,0.200000X0.275000X-0.200000X0.275000X0.200000X-0.275000X0.200000X-0.275000X-0.200000X0*%
%ADD39RoundRect,0.150000X-0.587500X-0.150000X0.587500X-0.150000X0.587500X0.150000X-0.587500X0.150000X0*%
%ADD40R,1.300000X0.700000*%
%ADD41R,1.651000X1.447800*%
%ADD42R,2.438400X1.447800*%
%ADD43R,1.651000X1.854200*%
G04 APERTURE END LIST*
D10*
%TO.C,SW404*%
X104681601Y-63552298D03*
X104681601Y-57552298D03*
X108431601Y-63552298D03*
X108431601Y-57552298D03*
%TD*%
%TO.C,SW402*%
X53150000Y-153500000D03*
X53150000Y-147500000D03*
X56900000Y-153500000D03*
X56900000Y-147500000D03*
%TD*%
D11*
%TO.C,C203*%
X76000000Y-121625000D03*
X76000000Y-123175000D03*
%TD*%
D12*
%TO.C,C212*%
X72400000Y-88050000D03*
X72400000Y-86150000D03*
%TD*%
D13*
%TO.C,U203*%
X46450000Y-121099994D03*
X46450000Y-123399994D03*
D14*
X52750000Y-123399994D03*
D13*
X46450000Y-125699994D03*
%TD*%
%TO.C,U201*%
X46450000Y-129100000D03*
X46450000Y-131400000D03*
D14*
X52750000Y-131400000D03*
D13*
X46450000Y-133700000D03*
%TD*%
D15*
%TO.C,F201*%
X36842557Y-130895291D03*
X36842557Y-137265291D03*
%TD*%
D10*
%TO.C,SW401*%
X90581611Y-63523965D03*
X90581611Y-57523965D03*
X94331611Y-63523965D03*
X94331611Y-57523965D03*
%TD*%
D16*
%TO.C,U101*%
X74337500Y-96250000D03*
X74337500Y-96750000D03*
X74337500Y-97250000D03*
X74337500Y-97750000D03*
X74337500Y-98250000D03*
X74337500Y-98750000D03*
X74337500Y-99250000D03*
X74337500Y-99750000D03*
X74337500Y-100250000D03*
X74337500Y-100750000D03*
X74337500Y-101250000D03*
X74337500Y-101750000D03*
X74337500Y-102250000D03*
X74337500Y-102750000D03*
X74337500Y-103250000D03*
X74337500Y-103750000D03*
X74337500Y-104250000D03*
X74337500Y-104750000D03*
X74337500Y-105250000D03*
X74337500Y-105750000D03*
X74337500Y-106250000D03*
X74337500Y-106750000D03*
X74337500Y-107250000D03*
X74337500Y-107750000D03*
X74337500Y-108250000D03*
X74337500Y-108750000D03*
X74337500Y-109250000D03*
X74337500Y-109750000D03*
X74337500Y-110250000D03*
X74337500Y-110750000D03*
X74337500Y-111250000D03*
X74337500Y-111750000D03*
X74337500Y-112250000D03*
X74337500Y-112750000D03*
X74337500Y-113250000D03*
X74337500Y-113750000D03*
D17*
X76250000Y-115662500D03*
X76750000Y-115662500D03*
X77250000Y-115662500D03*
X77750000Y-115662500D03*
X78250000Y-115662500D03*
X78750000Y-115662500D03*
X79250000Y-115662500D03*
X79750000Y-115662500D03*
X80250000Y-115662500D03*
X80750000Y-115662500D03*
X81250000Y-115662500D03*
X81750000Y-115662500D03*
X82250000Y-115662500D03*
X82750000Y-115662500D03*
X83250000Y-115662500D03*
X83750000Y-115662500D03*
X84250000Y-115662500D03*
X84750000Y-115662500D03*
X85250000Y-115662500D03*
X85750000Y-115662500D03*
X86250000Y-115662500D03*
X86750000Y-115662500D03*
X87250000Y-115662500D03*
X87750000Y-115662500D03*
X88250000Y-115662500D03*
X88750000Y-115662500D03*
X89250000Y-115662500D03*
X89750000Y-115662500D03*
X90250000Y-115662500D03*
X90750000Y-115662500D03*
X91250000Y-115662500D03*
X91750000Y-115662500D03*
X92250000Y-115662500D03*
X92750000Y-115662500D03*
X93250000Y-115662500D03*
X93750000Y-115662500D03*
D16*
X95662500Y-113750000D03*
X95662500Y-113250000D03*
X95662500Y-112750000D03*
X95662500Y-112250000D03*
X95662500Y-111750000D03*
X95662500Y-111250000D03*
X95662500Y-110750000D03*
X95662500Y-110250000D03*
X95662500Y-109750000D03*
X95662500Y-109250000D03*
X95662500Y-108750000D03*
X95662500Y-108250000D03*
X95662500Y-107750000D03*
X95662500Y-107250000D03*
X95662500Y-106750000D03*
X95662500Y-106250000D03*
X95662500Y-105750000D03*
X95662500Y-105250000D03*
X95662500Y-104750000D03*
X95662500Y-104250000D03*
X95662500Y-103750000D03*
X95662500Y-103250000D03*
X95662500Y-102750000D03*
X95662500Y-102250000D03*
X95662500Y-101750000D03*
X95662500Y-101250000D03*
X95662500Y-100750000D03*
X95662500Y-100250000D03*
X95662500Y-99750000D03*
X95662500Y-99250000D03*
X95662500Y-98750000D03*
X95662500Y-98250000D03*
X95662500Y-97750000D03*
X95662500Y-97250000D03*
X95662500Y-96750000D03*
X95662500Y-96250000D03*
D17*
X93750000Y-94337500D03*
X93250000Y-94337500D03*
X92750000Y-94337500D03*
X92250000Y-94337500D03*
X91750000Y-94337500D03*
X91250000Y-94337500D03*
X90750000Y-94337500D03*
X90250000Y-94337500D03*
X89750000Y-94337500D03*
X89250000Y-94337500D03*
X88750000Y-94337500D03*
X88250000Y-94337500D03*
X87750000Y-94337500D03*
X87250000Y-94337500D03*
X86750000Y-94337500D03*
X86250000Y-94337500D03*
X85750000Y-94337500D03*
X85250000Y-94337500D03*
X84750000Y-94337500D03*
X84250000Y-94337500D03*
X83750000Y-94337500D03*
X83250000Y-94337500D03*
X82750000Y-94337500D03*
X82250000Y-94337500D03*
X81750000Y-94337500D03*
X81250000Y-94337500D03*
X80750000Y-94337500D03*
X80250000Y-94337500D03*
X79750000Y-94337500D03*
X79250000Y-94337500D03*
X78750000Y-94337500D03*
X78250000Y-94337500D03*
X77750000Y-94337500D03*
X77250000Y-94337500D03*
X76750000Y-94337500D03*
X76250000Y-94337500D03*
%TD*%
D18*
%TO.C,C227*%
X44200000Y-125699998D03*
X42300000Y-125699998D03*
%TD*%
%TO.C,C216*%
X68800000Y-96800000D03*
X66900000Y-96800000D03*
%TD*%
D19*
%TO.C,R201*%
X64325000Y-114600000D03*
X62675000Y-114600000D03*
%TD*%
D20*
%TO.C,U701*%
X52609523Y-113610500D03*
X52609523Y-112340500D03*
X52609523Y-111070500D03*
X52609523Y-109800500D03*
X47659523Y-109800500D03*
X47659523Y-111070500D03*
X47659523Y-112340500D03*
X47659523Y-113610500D03*
%TD*%
D21*
%TO.C,C209*%
X88200000Y-88175000D03*
X88200000Y-86625000D03*
%TD*%
D19*
%TO.C,R409*%
X113812500Y-91200000D03*
X112162500Y-91200000D03*
%TD*%
D22*
%TO.C,D403*%
X115612499Y-91200000D03*
X117187501Y-91200000D03*
%TD*%
D18*
%TO.C,C223*%
X44149998Y-133699998D03*
X42249998Y-133699998D03*
%TD*%
D23*
%TO.C,R406*%
X90600000Y-65275000D03*
X90600000Y-66925000D03*
%TD*%
D11*
%TO.C,C501*%
X55034523Y-101775000D03*
X55034523Y-103325000D03*
%TD*%
D24*
%TO.C,D406*%
X51000000Y-138600000D03*
X49424998Y-138600000D03*
%TD*%
D11*
%TO.C,C206*%
X96900000Y-122125000D03*
X96900000Y-123675000D03*
%TD*%
D25*
%TO.C,C219*%
X94950000Y-122150000D03*
X94950000Y-124050000D03*
%TD*%
D19*
%TO.C,R204*%
X44025000Y-147050000D03*
X42375000Y-147050000D03*
%TD*%
D26*
%TO.C,C214*%
X103350000Y-100900000D03*
X105250000Y-100900000D03*
%TD*%
D11*
%TO.C,C601*%
X55284523Y-92825000D03*
X55284523Y-94375000D03*
%TD*%
D27*
%TO.C,X101*%
X60400000Y-108950000D03*
X62600000Y-108950000D03*
X62600000Y-107250000D03*
X60400000Y-107250000D03*
%TD*%
D19*
%TO.C,R414*%
X51000000Y-140500000D03*
X49350000Y-140500000D03*
%TD*%
D28*
%TO.C,C101*%
X60400000Y-105400000D03*
X61950000Y-105400000D03*
%TD*%
D29*
%TO.C,R205*%
X46425000Y-148900000D03*
X48075000Y-148900000D03*
%TD*%
D19*
%TO.C,R401*%
X119025000Y-111700000D03*
X117375000Y-111700000D03*
%TD*%
D22*
%TO.C,D405*%
X115600000Y-96658579D03*
X117175002Y-96658579D03*
%TD*%
D30*
%TO.C,D401*%
X118650000Y-120850000D03*
X118650000Y-116850000D03*
%TD*%
D19*
%TO.C,R202*%
X44025000Y-148900000D03*
X42375000Y-148900000D03*
%TD*%
D31*
%TO.C,R404*%
X44200000Y-100437500D03*
X44200000Y-103362500D03*
%TD*%
D32*
%TO.C,J401*%
X117955000Y-108250000D03*
X117955000Y-107450000D03*
D33*
X117955000Y-106250000D03*
X117955000Y-105250000D03*
X117955000Y-104750000D03*
X117955000Y-103750000D03*
D32*
X117955000Y-102550000D03*
X117955000Y-101750000D03*
X117955000Y-101750000D03*
X117955000Y-102550000D03*
D33*
X117955000Y-103250000D03*
X117955000Y-104250000D03*
X117955000Y-105750000D03*
X117955000Y-106750000D03*
D32*
X117955000Y-107450000D03*
X117955000Y-108250000D03*
%TD*%
D18*
%TO.C,C302*%
X100778744Y-79700000D03*
X98878744Y-79700000D03*
%TD*%
D19*
%TO.C,R412*%
X113812501Y-94058577D03*
X112162501Y-94058577D03*
%TD*%
D34*
%TO.C,Y101*%
X60450000Y-101250000D03*
X60450000Y-98750000D03*
%TD*%
D35*
%TO.C,L201*%
X62787500Y-118700000D03*
X64612500Y-118700000D03*
%TD*%
D28*
%TO.C,C213*%
X103325000Y-102800000D03*
X104875000Y-102800000D03*
%TD*%
D36*
%TO.C,D203*%
X46400000Y-143595094D03*
X42400000Y-143595094D03*
%TD*%
D26*
%TO.C,C220*%
X103350000Y-95650000D03*
X105250000Y-95650000D03*
%TD*%
D23*
%TO.C,R101*%
X59800000Y-83375000D03*
X59800000Y-85025000D03*
%TD*%
D36*
%TO.C,D202*%
X46400000Y-139100000D03*
X42400000Y-139100000D03*
%TD*%
D28*
%TO.C,C702*%
X47659523Y-108000000D03*
X49209523Y-108000000D03*
%TD*%
D19*
%TO.C,R413*%
X113812501Y-96658579D03*
X112162501Y-96658579D03*
%TD*%
D11*
%TO.C,C204*%
X83400000Y-122150000D03*
X83400000Y-123700000D03*
%TD*%
D23*
%TO.C,R407*%
X99456611Y-65275000D03*
X99456611Y-66925000D03*
%TD*%
D20*
%TO.C,U501*%
X52709523Y-104460500D03*
X52709523Y-103190500D03*
X52709523Y-101920500D03*
X52709523Y-100650500D03*
X47759523Y-100650500D03*
X47759523Y-101920500D03*
X47759523Y-103190500D03*
X47759523Y-104460500D03*
%TD*%
D28*
%TO.C,C502*%
X47759523Y-98900000D03*
X49309523Y-98900000D03*
%TD*%
D37*
%TO.C,C215*%
X68825000Y-98750000D03*
X67275000Y-98750000D03*
%TD*%
D28*
%TO.C,C207*%
X103325000Y-108600000D03*
X104875000Y-108600000D03*
%TD*%
D19*
%TO.C,R305*%
X104303745Y-78700000D03*
X102653745Y-78700000D03*
%TD*%
D21*
%TO.C,C403*%
X108456601Y-66827298D03*
X108456601Y-65277298D03*
%TD*%
D18*
%TO.C,C228*%
X44200000Y-123399996D03*
X42300000Y-123399996D03*
%TD*%
D38*
%TO.C,R102*%
X63900000Y-85025000D03*
X63900000Y-83375000D03*
%TD*%
D20*
%TO.C,U601*%
X52709523Y-95510500D03*
X52709523Y-94240500D03*
X52709523Y-92970500D03*
X52709523Y-91700500D03*
X47759523Y-91700500D03*
X47759523Y-92970500D03*
X47759523Y-94240500D03*
X47759523Y-95510500D03*
%TD*%
D37*
%TO.C,C301*%
X100803745Y-81700000D03*
X99253745Y-81700000D03*
%TD*%
D21*
%TO.C,C210*%
X83200000Y-88175000D03*
X83200000Y-86625000D03*
%TD*%
D31*
%TO.C,R405*%
X44200000Y-109487500D03*
X44200000Y-112412500D03*
%TD*%
D22*
%TO.C,D404*%
X115600000Y-94058577D03*
X117175002Y-94058577D03*
%TD*%
D37*
%TO.C,C217*%
X69025000Y-114400000D03*
X67475000Y-114400000D03*
%TD*%
D28*
%TO.C,C602*%
X47784523Y-89850000D03*
X49334523Y-89850000D03*
%TD*%
D39*
%TO.C,D201*%
X63000000Y-94050000D03*
X63000000Y-95950000D03*
X64875000Y-95000000D03*
%TD*%
D15*
%TO.C,F202*%
X30847464Y-130895290D03*
X30847464Y-137265290D03*
%TD*%
D23*
%TO.C,R408*%
X106556601Y-65227298D03*
X106556601Y-66877298D03*
%TD*%
D40*
%TO.C,J301*%
X109204945Y-77606400D03*
X109204945Y-78706400D03*
X109204945Y-79806400D03*
X109204945Y-80906400D03*
X109204945Y-82006400D03*
X109204945Y-83106400D03*
X109204945Y-84206400D03*
X109204945Y-85306400D03*
X109204945Y-86406400D03*
D41*
X109978745Y-87824800D03*
D42*
X119678745Y-87824800D03*
D43*
X109978745Y-72775000D03*
D42*
X119678745Y-72000000D03*
%TD*%
D37*
%TO.C,C202*%
X69025000Y-111150000D03*
X67475000Y-111150000D03*
%TD*%
D26*
%TO.C,C222*%
X62700000Y-112650000D03*
X64600000Y-112650000D03*
%TD*%
D28*
%TO.C,C401*%
X54225000Y-146050000D03*
X55775000Y-146050000D03*
%TD*%
D19*
%TO.C,R402*%
X119025000Y-113600000D03*
X117375000Y-113600000D03*
%TD*%
D28*
%TO.C,C208*%
X103325000Y-93700000D03*
X104875000Y-93700000D03*
%TD*%
D19*
%TO.C,R301*%
X104303745Y-80300000D03*
X102653745Y-80300000D03*
%TD*%
D18*
%TO.C,C224*%
X44150000Y-131399997D03*
X42250000Y-131399997D03*
%TD*%
D19*
%TO.C,R303*%
X104303745Y-85550000D03*
X102653745Y-85550000D03*
%TD*%
D29*
%TO.C,R203*%
X46425000Y-147050000D03*
X48075000Y-147050000D03*
%TD*%
D38*
%TO.C,R411*%
X104656601Y-66877298D03*
X104656601Y-65227298D03*
%TD*%
D19*
%TO.C,R302*%
X104303745Y-83950000D03*
X102653745Y-83950000D03*
%TD*%
D10*
%TO.C,SW403*%
X97581611Y-63523965D03*
X97581611Y-57523965D03*
X101331611Y-63523965D03*
X101331611Y-57523965D03*
%TD*%
D19*
%TO.C,R304*%
X104303745Y-77100000D03*
X102653745Y-77100000D03*
%TD*%
D21*
%TO.C,C402*%
X101400000Y-66875000D03*
X101400000Y-65325000D03*
%TD*%
D28*
%TO.C,C104*%
X62675000Y-98750000D03*
X64225000Y-98750000D03*
%TD*%
D11*
%TO.C,C205*%
X88400000Y-122125000D03*
X88400000Y-123675000D03*
%TD*%
D18*
%TO.C,C218*%
X64650000Y-116550000D03*
X62750000Y-116550000D03*
%TD*%
D31*
%TO.C,R403*%
X44250000Y-91337500D03*
X44250000Y-94262500D03*
%TD*%
D38*
%TO.C,R306*%
X104328745Y-88800000D03*
X104328745Y-87150000D03*
%TD*%
D11*
%TO.C,C701*%
X54984523Y-110925000D03*
X54984523Y-112475000D03*
%TD*%
D30*
%TO.C,D402*%
X114700000Y-120850000D03*
X114700000Y-116850000D03*
%TD*%
D37*
%TO.C,C221*%
X69025000Y-112750000D03*
X67475000Y-112750000D03*
%TD*%
D38*
%TO.C,R410*%
X97556611Y-66925000D03*
X97556611Y-65275000D03*
%TD*%
D37*
%TO.C,C201*%
X69025000Y-104200000D03*
X67475000Y-104200000D03*
%TD*%
D28*
%TO.C,C103*%
X62675000Y-101250000D03*
X64225000Y-101250000D03*
%TD*%
D21*
%TO.C,C211*%
X74350000Y-88125000D03*
X74350000Y-86575000D03*
%TD*%
M02*
