M48
; DRILL file {KiCad 8.0.0} date 2024-03-17T16:56:20+0800
; FORMAT={-:-/ absolute / inch / decimal}
; #@! TF.CreationDate,2024-03-17T16:56:20+08:00
; #@! TF.GenerationSoftware,Kicad,Pcbnew,8.0.0
; #@! TF.FileFunction,Plated,1,4,PTH
FMAT,2
INCH
; #@! TA.AperFunction,Plated,PTH,ViaDrill
T1C0.0118
; #@! TA.AperFunction,Plated,PTH,ViaDrill
T2C0.0138
; #@! TA.AperFunction,Plated,PTH,ViaDrill
T3C0.0157
; #@! TA.AperFunction,Plated,PTH,ComponentDrill
T4C0.0236
; #@! TA.AperFunction,Plated,PTH,ComponentDrill
T5C0.0295
; #@! TA.AperFunction,Plated,PTH,ComponentDrill
T6C0.0394
; #@! TA.AperFunction,Plated,PTH,ComponentDrill
T7C0.0402
; #@! TA.AperFunction,Plated,PTH,ComponentDrill
T8C0.1693
%
G90
G05
T1
X1.6142Y-5.561
X1.6142Y-5.8563
X1.9409Y-5.5748
X2.0925Y-5.75
X2.1654Y-3.6103
X2.1654Y-3.7603
X2.1654Y-4.1142
X2.1654Y-4.3228
X2.1654Y-4.4724
X2.1673Y-3.9626
X2.2402Y-5.75
X2.2795Y-6.0453
X2.3071Y-3.315
X2.3346Y-4.1496
X2.4366Y-5.3642
X2.5039Y-3.2244
X2.5311Y-5.3657
X2.5709Y-3.8898
X2.5731Y-4.1707
X2.5906Y-3.7992
X2.5906Y-3.8307
X2.5906Y-4.1969
X2.6063Y-3.8898
X2.6161Y-4.1024
X2.6201Y-3.7028
X2.6378Y-5.3839
X2.6457Y-4.0157
X2.685Y-4.0
X2.7067Y-5.0197
X2.7362Y-5.4429
X2.7756Y-5.0886
X2.7756Y-5.3937
X2.7985Y-3.5984
X2.8327Y-4.2657
X2.8346Y-3.3484
X2.8425Y-3.5984
X2.8449Y-3.7063
X2.8661Y-3.3484
X2.874Y-3.6772
X2.874Y-4.8425
X2.9232Y-4.8031
X2.9291Y-3.3681
X2.9764Y-4.8898
X3.0157Y-3.9528
X3.0551Y-3.9528
X3.0591Y-3.622
X3.0827Y-3.5945
X3.0945Y-3.2874
X3.1414Y-3.5594
X3.1575Y-3.4803
X3.1654Y-3.4409
X3.1654Y-3.5276
X3.248Y-3.002
X3.2756Y-3.3701
X3.2756Y-4.9094
X3.2972Y-3.2579
X3.3917Y-2.6212
X3.4094Y-5.0197
X3.435Y-2.5492
X3.4646Y-4.626
X3.4724Y-3.3701
X3.4843Y-4.9094
X3.4941Y-2.5689
X3.5039Y-2.8346
X3.5236Y-2.8051
X3.5335Y-3.8125
X3.5531Y-2.7657
X3.5827Y-2.7362
X3.6122Y-2.6339
X3.6122Y-3.8484
X3.6351Y-4.685
X3.6366Y-5.3642
X3.6512Y-3.8978
X3.6622Y-4.7146
X3.6811Y-3.8878
X3.6909Y-4.685
X3.7146Y-2.5433
X3.7244Y-4.9252
X3.7559Y-4.9252
X3.815Y-4.9094
X3.9156Y-2.5285
X3.9291Y-4.0157
X3.9606Y-4.0
X3.9665Y-4.2874
X4.0Y-3.8091
X4.0098Y-3.9823
X4.0298Y-2.5679
X4.0355Y-4.3339
X4.0397Y-4.6709
X4.0512Y-4.7185
X4.0803Y-4.6382
X4.0878Y-4.6819
X4.1156Y-4.595
X4.124Y-4.6457
X4.1575Y-3.9114
X4.1693Y-3.689
X4.1693Y-4.0591
X4.1693Y-4.2736
X4.185Y-3.752
X4.185Y-3.7835
X4.185Y-3.9724
X4.185Y-4.0
X4.1952Y-2.5299
X4.252Y-3.2717
X4.3054Y-2.569
X4.3465Y-3.2717
X4.3583Y-5.8661
X4.3661Y-3.8228
X4.378Y-3.5906
X4.378Y-3.7047
X4.4331Y-5.8268
X4.4882Y-4.1634
X4.5079Y-4.2028
X4.6558Y-3.7031
X4.6558Y-3.8055
X4.6575Y-3.5906
T2
X1.5157Y-4.3189
X1.5453Y-3.9528
X1.7657Y-3.8937
X1.7795Y-5.7894
X1.7795Y-5.8622
X1.8051Y-4.4724
X1.8071Y-3.7598
X1.811Y-4.1122
X1.8307Y-4.2526
X1.8346Y-3.8937
X1.8813Y-3.498
X1.935Y-5.7894
X1.935Y-5.8602
X1.9423Y-3.498
X1.9843Y-3.8937
X1.9882Y-4.2526
X2.21Y-4.3661
X2.21Y-4.4272
X2.212Y-4.0079
X2.212Y-4.0669
X2.2258Y-3.6535
X2.2258Y-3.7165
X2.4843Y-4.1496
X2.5748Y-3.9882
X2.5965Y-4.376
X2.7638Y-4.1024
X2.7638Y-4.376
X2.7638Y-4.5906
X2.7657Y-4.439
X2.7657Y-4.5039
X2.7699Y-4.6294
X2.9272Y-3.5138
X3.0098Y-4.0846
X3.0098Y-4.3799
X3.0217Y-4.4744
X3.0236Y-3.7913
X3.0276Y-4.748
X3.2677Y-3.5236
X3.2776Y-3.7913
X3.2776Y-4.4744
X3.2874Y-4.7657
X3.4646Y-3.5236
X3.4744Y-3.7913
X3.4744Y-4.4744
X3.4803Y-4.7598
X3.622Y-3.1614
X3.6949Y-3.8091
X3.6949Y-4.065
X3.6949Y-4.2815
X3.7146Y-3.252
X3.7441Y-3.0984
X3.7815Y-3.0335
X3.815Y-4.7618
X4.0217Y-3.689
X4.0217Y-4.0472
X4.0226Y-4.2717
X4.1645Y-3.0354
X4.1645Y-3.0984
X4.1645Y-3.1614
X4.1645Y-3.252
X4.1645Y-3.3051
X4.1645Y-3.3681
X4.5512Y-4.0354
X4.5512Y-4.2402
X4.5748Y-4.3976
X4.5748Y-4.4724
X4.5906Y-4.0
X4.5906Y-4.2717
T3
X1.6083Y-5.1732
X1.6083Y-5.2638
X1.6102Y-4.8583
X1.6102Y-4.9488
X1.7539Y-5.0775
X1.7559Y-4.7704
X1.8287Y-5.376
X1.9173Y-4.9488
X2.0768Y-4.748
X2.0768Y-4.9665
X2.0768Y-5.061
X2.0768Y-5.2815
X2.1516Y-4.8031
X2.1516Y-4.9016
X2.1516Y-5.128
X2.1516Y-5.2146
X2.4094Y-4.435
X2.4154Y-4.5866
X2.4154Y-4.6732
X2.4754Y-4.3514
X2.5295Y-4.2923
X2.5945Y-4.5098
X2.6575Y-4.5551
X3.8917Y-2.9744
X3.9075Y-3.3425
X3.9677Y-2.9744
X4.0405Y-3.4272
X4.0415Y-2.9744
X4.498Y-4.8917
X4.6713Y-4.8406
X4.7677Y-4.7579
T5
X1.7618Y-2.2913
X1.7618Y-2.5669
X1.7924Y-2.8418
X1.7924Y-2.9205
X1.7924Y-2.9993
X1.7924Y-3.078
X1.7924Y-3.1568
X1.8406Y-2.2913
X1.8406Y-2.5669
X2.0089Y-2.8418
X2.0089Y-2.9205
X2.0089Y-2.9993
X2.0089Y-3.078
X2.0089Y-3.1568
X2.0374Y-2.2913
X2.0374Y-2.5669
X2.1161Y-2.2913
X2.1161Y-2.5669
X2.2255Y-2.8418
X2.2255Y-2.9205
X2.2255Y-2.9993
X2.2255Y-3.078
X2.2255Y-3.1568
X2.313Y-2.2913
X2.313Y-2.5669
X2.3917Y-2.2913
X2.3917Y-2.5669
X2.4213Y-5.6791
X2.4213Y-5.7579
X2.4213Y-5.8366
X2.4213Y-5.9154
X2.442Y-2.8418
X2.442Y-2.9205
X2.442Y-2.9993
X2.442Y-3.078
X2.442Y-3.1568
X2.5Y-5.6791
X2.5Y-5.7579
X2.5Y-5.8366
X2.5Y-5.9154
X2.6586Y-2.2709
X2.6586Y-2.3497
X2.6586Y-2.4284
X2.6586Y-2.5072
X2.6586Y-2.5859
X2.6586Y-2.8418
X2.6586Y-2.9205
X2.6586Y-2.9993
X2.6586Y-3.078
X2.6586Y-3.1568
X2.7362Y-5.6791
X2.7362Y-5.7579
X2.7362Y-5.8366
X2.7362Y-5.9154
X2.7362Y-5.9941
X2.8751Y-2.2709
X2.8751Y-2.3497
X2.8751Y-2.4284
X2.8751Y-2.5072
X2.8751Y-2.5859
X2.8751Y-2.8418
X2.8751Y-2.9205
X2.8751Y-2.9993
X2.8751Y-3.078
X2.8751Y-3.1568
X2.9528Y-5.6791
X2.9528Y-5.7579
X2.9528Y-5.8366
X2.9528Y-5.9154
X2.9528Y-5.9941
X3.0916Y-2.2709
X3.0916Y-2.3497
X3.0916Y-2.4284
X3.0916Y-2.5072
X3.0916Y-2.5859
X3.0916Y-2.8418
X3.0916Y-2.9205
X3.0916Y-2.9993
X3.0916Y-3.078
X3.0916Y-3.1568
X3.1693Y-5.6791
X3.1693Y-5.7579
X3.1693Y-5.8366
X3.1693Y-5.9154
X3.1693Y-5.9941
X3.3071Y-2.2736
X3.3071Y-2.3524
X3.3071Y-2.4311
X3.3071Y-2.5098
X3.3071Y-2.8445
X3.3071Y-2.9232
X3.3071Y-3.002
X3.3071Y-3.0807
X3.3858Y-2.2736
X3.3858Y-2.3524
X3.3858Y-2.4311
X3.3858Y-2.5098
X3.3858Y-2.8445
X3.3858Y-2.9232
X3.3858Y-3.002
X3.3858Y-3.0807
X3.3858Y-5.6791
X3.3858Y-5.7579
X3.3858Y-5.8366
X3.3858Y-5.9154
X3.3858Y-5.9941
X3.6024Y-5.6791
X3.6024Y-5.7579
X3.6024Y-5.8366
X3.6024Y-5.9154
X3.6024Y-5.9941
X3.7894Y-5.6791
X3.7894Y-5.7579
X3.7894Y-5.8366
X3.7894Y-5.9154
X3.8681Y-5.6791
X3.8681Y-5.7579
X3.8681Y-5.8366
X3.8681Y-5.9154
T6
X2.3838Y-5.1849
X2.3838Y-5.2849
X2.4838Y-5.1849
X2.4838Y-5.2849
X2.5838Y-5.1849
X2.5838Y-5.2849
X2.6838Y-5.1849
X2.6838Y-5.2849
X2.7838Y-5.1849
X2.7838Y-5.2849
X2.8838Y-5.1849
X2.8838Y-5.2849
X2.9838Y-5.1849
X2.9838Y-5.2849
X3.0838Y-5.1849
X3.0838Y-5.2849
X3.1838Y-5.1849
X3.1838Y-5.2849
X3.2838Y-5.1849
X3.2838Y-5.2849
X3.3838Y-5.1849
X3.3838Y-5.2849
X3.4838Y-5.1849
X3.4838Y-5.2849
X3.5838Y-5.1849
X3.5838Y-5.2849
X3.6838Y-5.1849
X3.6838Y-5.2849
X3.7838Y-5.1849
X3.7838Y-5.2849
X3.8838Y-5.1849
X3.8838Y-5.2849
X3.9838Y-5.1849
X3.9838Y-5.2849
X4.0838Y-5.1849
X4.0838Y-5.2849
X4.1838Y-5.1849
X4.1838Y-5.2849
X4.2838Y-5.1849
X4.2838Y-5.2849
T7
X1.1969Y-3.5984
X1.1969Y-3.7165
X1.1969Y-3.8346
X1.1969Y-3.9528
X1.1969Y-4.0709
X1.1969Y-4.189
X1.1969Y-4.3071
X1.1969Y-4.4252
X1.1969Y-4.5433
X1.1969Y-4.6614
X1.315Y-3.5984
X1.315Y-3.7165
X1.315Y-3.8346
X1.315Y-3.9528
X1.315Y-4.0709
X1.315Y-4.189
X1.315Y-4.3071
X1.315Y-4.4252
X1.315Y-4.5433
X1.315Y-4.6614
T8
X1.2205Y-2.4016
X1.2205Y-5.8661
X4.685Y-2.4016
X4.685Y-5.8661
T4
G00X4.6583Y-3.9638
M15
G01X4.7016Y-3.9638
M16
G05
G00X4.6583Y-4.3039
M15
G01X4.7016Y-4.3039
M16
G05
G00X4.8327Y-3.9638
M15
G01X4.8563Y-3.9638
M16
G05
G00X4.8327Y-4.3039
M15
G01X4.8563Y-4.3039
M16
G05
M30
