%TF.GenerationSoftware,KiCad,Pcbnew,8.0.1*%
%TF.CreationDate,2024-03-19T22:33:07+08:00*%
%TF.ProjectId,bigger-brain,62696767-6572-42d6-9272-61696e2e6b69,2*%
%TF.SameCoordinates,Original*%
%TF.FileFunction,Drillmap*%
%TF.FilePolarity,Positive*%
%FSLAX45Y45*%
G04 Gerber Fmt 4.5, Leading zero omitted, Abs format (unit mm)*
G04 Created by KiCad (PCBNEW 8.0.1) date 2024-03-19 22:33:07*
%MOMM*%
%LPD*%
G01*
G04 APERTURE LIST*
%ADD10C,0.200000*%
%ADD11C,0.100000*%
%ADD12C,0.102000*%
G04 APERTURE END LIST*
D10*
X12100000Y-5500000D02*
X12100000Y-5500000D01*
G75*
G02*
X12500000Y-5900000I0J-400000D01*
G01*
X12500000Y-15100000D01*
G75*
G02*
X12100000Y-15500000I-400000J0D01*
G01*
X2900000Y-15500000D01*
G75*
G02*
X2500000Y-15100000I0J400000D01*
G01*
X2500000Y-5900000D01*
G75*
G02*
X2900000Y-5500000I400000J0D01*
G01*
X12100000Y-5500000D01*
D11*
X11907500Y-10178500D02*
X11972500Y-10243500D01*
X11972500Y-10178500D02*
X11907500Y-10243500D01*
X11907500Y-10756500D02*
X11972500Y-10821500D01*
X11972500Y-10756500D02*
X11907500Y-10821500D01*
X12040934Y-7686440D02*
G75*
G02*
X11940935Y-7686440I-50000J0D01*
G01*
X11940935Y-7686440D02*
G75*
G02*
X12040934Y-7686440I50000J0D01*
G01*
X12040934Y-8484000D02*
G75*
G02*
X11940935Y-8484000I-50000J0D01*
G01*
X11940935Y-8484000D02*
G75*
G02*
X12040934Y-8484000I50000J0D01*
G01*
D12*
X2946000Y-8789000D02*
X2946000Y-8891000D01*
X2895000Y-8840000D02*
X2997000Y-8840000D01*
X2946000Y-12089000D02*
X2946000Y-12191000D01*
X2895000Y-12140000D02*
X2997000Y-12140000D01*
D10*
X2750777Y-15821484D02*
X2750777Y-15621484D01*
X2750777Y-15621484D02*
X2798396Y-15621484D01*
X2798396Y-15621484D02*
X2826967Y-15631008D01*
X2826967Y-15631008D02*
X2846015Y-15650055D01*
X2846015Y-15650055D02*
X2855539Y-15669103D01*
X2855539Y-15669103D02*
X2865062Y-15707198D01*
X2865062Y-15707198D02*
X2865062Y-15735769D01*
X2865062Y-15735769D02*
X2855539Y-15773865D01*
X2855539Y-15773865D02*
X2846015Y-15792912D01*
X2846015Y-15792912D02*
X2826967Y-15811960D01*
X2826967Y-15811960D02*
X2798396Y-15821484D01*
X2798396Y-15821484D02*
X2750777Y-15821484D01*
X2950777Y-15821484D02*
X2950777Y-15688150D01*
X2950777Y-15726246D02*
X2960301Y-15707198D01*
X2960301Y-15707198D02*
X2969824Y-15697674D01*
X2969824Y-15697674D02*
X2988872Y-15688150D01*
X2988872Y-15688150D02*
X3007920Y-15688150D01*
X3074586Y-15821484D02*
X3074586Y-15688150D01*
X3074586Y-15621484D02*
X3065062Y-15631008D01*
X3065062Y-15631008D02*
X3074586Y-15640531D01*
X3074586Y-15640531D02*
X3084110Y-15631008D01*
X3084110Y-15631008D02*
X3074586Y-15621484D01*
X3074586Y-15621484D02*
X3074586Y-15640531D01*
X3198396Y-15821484D02*
X3179348Y-15811960D01*
X3179348Y-15811960D02*
X3169824Y-15792912D01*
X3169824Y-15792912D02*
X3169824Y-15621484D01*
X3303158Y-15821484D02*
X3284110Y-15811960D01*
X3284110Y-15811960D02*
X3274586Y-15792912D01*
X3274586Y-15792912D02*
X3274586Y-15621484D01*
X3531729Y-15821484D02*
X3531729Y-15621484D01*
X3531729Y-15621484D02*
X3598396Y-15764341D01*
X3598396Y-15764341D02*
X3665062Y-15621484D01*
X3665062Y-15621484D02*
X3665062Y-15821484D01*
X3846015Y-15821484D02*
X3846015Y-15716722D01*
X3846015Y-15716722D02*
X3836491Y-15697674D01*
X3836491Y-15697674D02*
X3817443Y-15688150D01*
X3817443Y-15688150D02*
X3779348Y-15688150D01*
X3779348Y-15688150D02*
X3760301Y-15697674D01*
X3846015Y-15811960D02*
X3826967Y-15821484D01*
X3826967Y-15821484D02*
X3779348Y-15821484D01*
X3779348Y-15821484D02*
X3760301Y-15811960D01*
X3760301Y-15811960D02*
X3750777Y-15792912D01*
X3750777Y-15792912D02*
X3750777Y-15773865D01*
X3750777Y-15773865D02*
X3760301Y-15754817D01*
X3760301Y-15754817D02*
X3779348Y-15745293D01*
X3779348Y-15745293D02*
X3826967Y-15745293D01*
X3826967Y-15745293D02*
X3846015Y-15735769D01*
X3941253Y-15688150D02*
X3941253Y-15888150D01*
X3941253Y-15697674D02*
X3960301Y-15688150D01*
X3960301Y-15688150D02*
X3998396Y-15688150D01*
X3998396Y-15688150D02*
X4017443Y-15697674D01*
X4017443Y-15697674D02*
X4026967Y-15707198D01*
X4026967Y-15707198D02*
X4036491Y-15726246D01*
X4036491Y-15726246D02*
X4036491Y-15783388D01*
X4036491Y-15783388D02*
X4026967Y-15802436D01*
X4026967Y-15802436D02*
X4017443Y-15811960D01*
X4017443Y-15811960D02*
X3998396Y-15821484D01*
X3998396Y-15821484D02*
X3960301Y-15821484D01*
X3960301Y-15821484D02*
X3941253Y-15811960D01*
X4122205Y-15802436D02*
X4131729Y-15811960D01*
X4131729Y-15811960D02*
X4122205Y-15821484D01*
X4122205Y-15821484D02*
X4112682Y-15811960D01*
X4112682Y-15811960D02*
X4122205Y-15802436D01*
X4122205Y-15802436D02*
X4122205Y-15821484D01*
X4122205Y-15697674D02*
X4131729Y-15707198D01*
X4131729Y-15707198D02*
X4122205Y-15716722D01*
X4122205Y-15716722D02*
X4112682Y-15707198D01*
X4112682Y-15707198D02*
X4122205Y-15697674D01*
X4122205Y-15697674D02*
X4122205Y-15716722D01*
D11*
X2425000Y-16117500D02*
X2490000Y-16182500D01*
X2490000Y-16117500D02*
X2425000Y-16182500D01*
D10*
X2788872Y-16041484D02*
X2807920Y-16041484D01*
X2807920Y-16041484D02*
X2826967Y-16051008D01*
X2826967Y-16051008D02*
X2836491Y-16060531D01*
X2836491Y-16060531D02*
X2846015Y-16079579D01*
X2846015Y-16079579D02*
X2855539Y-16117674D01*
X2855539Y-16117674D02*
X2855539Y-16165293D01*
X2855539Y-16165293D02*
X2846015Y-16203388D01*
X2846015Y-16203388D02*
X2836491Y-16222436D01*
X2836491Y-16222436D02*
X2826967Y-16231960D01*
X2826967Y-16231960D02*
X2807920Y-16241484D01*
X2807920Y-16241484D02*
X2788872Y-16241484D01*
X2788872Y-16241484D02*
X2769824Y-16231960D01*
X2769824Y-16231960D02*
X2760301Y-16222436D01*
X2760301Y-16222436D02*
X2750777Y-16203388D01*
X2750777Y-16203388D02*
X2741253Y-16165293D01*
X2741253Y-16165293D02*
X2741253Y-16117674D01*
X2741253Y-16117674D02*
X2750777Y-16079579D01*
X2750777Y-16079579D02*
X2760301Y-16060531D01*
X2760301Y-16060531D02*
X2769824Y-16051008D01*
X2769824Y-16051008D02*
X2788872Y-16041484D01*
X2941253Y-16222436D02*
X2950777Y-16231960D01*
X2950777Y-16231960D02*
X2941253Y-16241484D01*
X2941253Y-16241484D02*
X2931729Y-16231960D01*
X2931729Y-16231960D02*
X2941253Y-16222436D01*
X2941253Y-16222436D02*
X2941253Y-16241484D01*
X3122205Y-16041484D02*
X3084110Y-16041484D01*
X3084110Y-16041484D02*
X3065062Y-16051008D01*
X3065062Y-16051008D02*
X3055539Y-16060531D01*
X3055539Y-16060531D02*
X3036491Y-16089103D01*
X3036491Y-16089103D02*
X3026967Y-16127198D01*
X3026967Y-16127198D02*
X3026967Y-16203388D01*
X3026967Y-16203388D02*
X3036491Y-16222436D01*
X3036491Y-16222436D02*
X3046015Y-16231960D01*
X3046015Y-16231960D02*
X3065062Y-16241484D01*
X3065062Y-16241484D02*
X3103158Y-16241484D01*
X3103158Y-16241484D02*
X3122205Y-16231960D01*
X3122205Y-16231960D02*
X3131729Y-16222436D01*
X3131729Y-16222436D02*
X3141253Y-16203388D01*
X3141253Y-16203388D02*
X3141253Y-16155769D01*
X3141253Y-16155769D02*
X3131729Y-16136722D01*
X3131729Y-16136722D02*
X3122205Y-16127198D01*
X3122205Y-16127198D02*
X3103158Y-16117674D01*
X3103158Y-16117674D02*
X3065062Y-16117674D01*
X3065062Y-16117674D02*
X3046015Y-16127198D01*
X3046015Y-16127198D02*
X3036491Y-16136722D01*
X3036491Y-16136722D02*
X3026967Y-16155769D01*
X3322205Y-16041484D02*
X3226967Y-16041484D01*
X3226967Y-16041484D02*
X3217443Y-16136722D01*
X3217443Y-16136722D02*
X3226967Y-16127198D01*
X3226967Y-16127198D02*
X3246015Y-16117674D01*
X3246015Y-16117674D02*
X3293634Y-16117674D01*
X3293634Y-16117674D02*
X3312682Y-16127198D01*
X3312682Y-16127198D02*
X3322205Y-16136722D01*
X3322205Y-16136722D02*
X3331729Y-16155769D01*
X3331729Y-16155769D02*
X3331729Y-16203388D01*
X3331729Y-16203388D02*
X3322205Y-16222436D01*
X3322205Y-16222436D02*
X3312682Y-16231960D01*
X3312682Y-16231960D02*
X3293634Y-16241484D01*
X3293634Y-16241484D02*
X3246015Y-16241484D01*
X3246015Y-16241484D02*
X3226967Y-16231960D01*
X3226967Y-16231960D02*
X3217443Y-16222436D01*
X3455539Y-16041484D02*
X3474586Y-16041484D01*
X3474586Y-16041484D02*
X3493634Y-16051008D01*
X3493634Y-16051008D02*
X3503158Y-16060531D01*
X3503158Y-16060531D02*
X3512682Y-16079579D01*
X3512682Y-16079579D02*
X3522205Y-16117674D01*
X3522205Y-16117674D02*
X3522205Y-16165293D01*
X3522205Y-16165293D02*
X3512682Y-16203388D01*
X3512682Y-16203388D02*
X3503158Y-16222436D01*
X3503158Y-16222436D02*
X3493634Y-16231960D01*
X3493634Y-16231960D02*
X3474586Y-16241484D01*
X3474586Y-16241484D02*
X3455539Y-16241484D01*
X3455539Y-16241484D02*
X3436491Y-16231960D01*
X3436491Y-16231960D02*
X3426967Y-16222436D01*
X3426967Y-16222436D02*
X3417443Y-16203388D01*
X3417443Y-16203388D02*
X3407920Y-16165293D01*
X3407920Y-16165293D02*
X3407920Y-16117674D01*
X3407920Y-16117674D02*
X3417443Y-16079579D01*
X3417443Y-16079579D02*
X3426967Y-16060531D01*
X3426967Y-16060531D02*
X3436491Y-16051008D01*
X3436491Y-16051008D02*
X3455539Y-16041484D01*
X3607920Y-16241484D02*
X3607920Y-16108150D01*
X3607920Y-16127198D02*
X3617443Y-16117674D01*
X3617443Y-16117674D02*
X3636491Y-16108150D01*
X3636491Y-16108150D02*
X3665063Y-16108150D01*
X3665063Y-16108150D02*
X3684110Y-16117674D01*
X3684110Y-16117674D02*
X3693634Y-16136722D01*
X3693634Y-16136722D02*
X3693634Y-16241484D01*
X3693634Y-16136722D02*
X3703158Y-16117674D01*
X3703158Y-16117674D02*
X3722205Y-16108150D01*
X3722205Y-16108150D02*
X3750777Y-16108150D01*
X3750777Y-16108150D02*
X3769824Y-16117674D01*
X3769824Y-16117674D02*
X3779348Y-16136722D01*
X3779348Y-16136722D02*
X3779348Y-16241484D01*
X3874586Y-16241484D02*
X3874586Y-16108150D01*
X3874586Y-16127198D02*
X3884110Y-16117674D01*
X3884110Y-16117674D02*
X3903158Y-16108150D01*
X3903158Y-16108150D02*
X3931729Y-16108150D01*
X3931729Y-16108150D02*
X3950777Y-16117674D01*
X3950777Y-16117674D02*
X3960301Y-16136722D01*
X3960301Y-16136722D02*
X3960301Y-16241484D01*
X3960301Y-16136722D02*
X3969824Y-16117674D01*
X3969824Y-16117674D02*
X3988872Y-16108150D01*
X3988872Y-16108150D02*
X4017443Y-16108150D01*
X4017443Y-16108150D02*
X4036491Y-16117674D01*
X4036491Y-16117674D02*
X4046015Y-16136722D01*
X4046015Y-16136722D02*
X4046015Y-16241484D01*
X4436491Y-16031960D02*
X4265063Y-16289103D01*
X4693634Y-16041484D02*
X4712682Y-16041484D01*
X4712682Y-16041484D02*
X4731729Y-16051008D01*
X4731729Y-16051008D02*
X4741253Y-16060531D01*
X4741253Y-16060531D02*
X4750777Y-16079579D01*
X4750777Y-16079579D02*
X4760301Y-16117674D01*
X4760301Y-16117674D02*
X4760301Y-16165293D01*
X4760301Y-16165293D02*
X4750777Y-16203388D01*
X4750777Y-16203388D02*
X4741253Y-16222436D01*
X4741253Y-16222436D02*
X4731729Y-16231960D01*
X4731729Y-16231960D02*
X4712682Y-16241484D01*
X4712682Y-16241484D02*
X4693634Y-16241484D01*
X4693634Y-16241484D02*
X4674587Y-16231960D01*
X4674587Y-16231960D02*
X4665063Y-16222436D01*
X4665063Y-16222436D02*
X4655539Y-16203388D01*
X4655539Y-16203388D02*
X4646015Y-16165293D01*
X4646015Y-16165293D02*
X4646015Y-16117674D01*
X4646015Y-16117674D02*
X4655539Y-16079579D01*
X4655539Y-16079579D02*
X4665063Y-16060531D01*
X4665063Y-16060531D02*
X4674587Y-16051008D01*
X4674587Y-16051008D02*
X4693634Y-16041484D01*
X4846015Y-16222436D02*
X4855539Y-16231960D01*
X4855539Y-16231960D02*
X4846015Y-16241484D01*
X4846015Y-16241484D02*
X4836491Y-16231960D01*
X4836491Y-16231960D02*
X4846015Y-16222436D01*
X4846015Y-16222436D02*
X4846015Y-16241484D01*
X4979348Y-16041484D02*
X4998396Y-16041484D01*
X4998396Y-16041484D02*
X5017444Y-16051008D01*
X5017444Y-16051008D02*
X5026968Y-16060531D01*
X5026968Y-16060531D02*
X5036491Y-16079579D01*
X5036491Y-16079579D02*
X5046015Y-16117674D01*
X5046015Y-16117674D02*
X5046015Y-16165293D01*
X5046015Y-16165293D02*
X5036491Y-16203388D01*
X5036491Y-16203388D02*
X5026968Y-16222436D01*
X5026968Y-16222436D02*
X5017444Y-16231960D01*
X5017444Y-16231960D02*
X4998396Y-16241484D01*
X4998396Y-16241484D02*
X4979348Y-16241484D01*
X4979348Y-16241484D02*
X4960301Y-16231960D01*
X4960301Y-16231960D02*
X4950777Y-16222436D01*
X4950777Y-16222436D02*
X4941253Y-16203388D01*
X4941253Y-16203388D02*
X4931729Y-16165293D01*
X4931729Y-16165293D02*
X4931729Y-16117674D01*
X4931729Y-16117674D02*
X4941253Y-16079579D01*
X4941253Y-16079579D02*
X4950777Y-16060531D01*
X4950777Y-16060531D02*
X4960301Y-16051008D01*
X4960301Y-16051008D02*
X4979348Y-16041484D01*
X5122206Y-16060531D02*
X5131729Y-16051008D01*
X5131729Y-16051008D02*
X5150777Y-16041484D01*
X5150777Y-16041484D02*
X5198396Y-16041484D01*
X5198396Y-16041484D02*
X5217444Y-16051008D01*
X5217444Y-16051008D02*
X5226968Y-16060531D01*
X5226968Y-16060531D02*
X5236491Y-16079579D01*
X5236491Y-16079579D02*
X5236491Y-16098627D01*
X5236491Y-16098627D02*
X5226968Y-16127198D01*
X5226968Y-16127198D02*
X5112682Y-16241484D01*
X5112682Y-16241484D02*
X5236491Y-16241484D01*
X5417444Y-16041484D02*
X5322206Y-16041484D01*
X5322206Y-16041484D02*
X5312682Y-16136722D01*
X5312682Y-16136722D02*
X5322206Y-16127198D01*
X5322206Y-16127198D02*
X5341253Y-16117674D01*
X5341253Y-16117674D02*
X5388872Y-16117674D01*
X5388872Y-16117674D02*
X5407920Y-16127198D01*
X5407920Y-16127198D02*
X5417444Y-16136722D01*
X5417444Y-16136722D02*
X5426968Y-16155769D01*
X5426968Y-16155769D02*
X5426968Y-16203388D01*
X5426968Y-16203388D02*
X5417444Y-16222436D01*
X5417444Y-16222436D02*
X5407920Y-16231960D01*
X5407920Y-16231960D02*
X5388872Y-16241484D01*
X5388872Y-16241484D02*
X5341253Y-16241484D01*
X5341253Y-16241484D02*
X5322206Y-16231960D01*
X5322206Y-16231960D02*
X5312682Y-16222436D01*
X5598396Y-16041484D02*
X5560301Y-16041484D01*
X5560301Y-16041484D02*
X5541253Y-16051008D01*
X5541253Y-16051008D02*
X5531729Y-16060531D01*
X5531729Y-16060531D02*
X5512682Y-16089103D01*
X5512682Y-16089103D02*
X5503158Y-16127198D01*
X5503158Y-16127198D02*
X5503158Y-16203388D01*
X5503158Y-16203388D02*
X5512682Y-16222436D01*
X5512682Y-16222436D02*
X5522206Y-16231960D01*
X5522206Y-16231960D02*
X5541253Y-16241484D01*
X5541253Y-16241484D02*
X5579349Y-16241484D01*
X5579349Y-16241484D02*
X5598396Y-16231960D01*
X5598396Y-16231960D02*
X5607920Y-16222436D01*
X5607920Y-16222436D02*
X5617444Y-16203388D01*
X5617444Y-16203388D02*
X5617444Y-16155769D01*
X5617444Y-16155769D02*
X5607920Y-16136722D01*
X5607920Y-16136722D02*
X5598396Y-16127198D01*
X5598396Y-16127198D02*
X5579349Y-16117674D01*
X5579349Y-16117674D02*
X5541253Y-16117674D01*
X5541253Y-16117674D02*
X5522206Y-16127198D01*
X5522206Y-16127198D02*
X5512682Y-16136722D01*
X5512682Y-16136722D02*
X5503158Y-16155769D01*
X5693634Y-16041484D02*
X5693634Y-16079579D01*
X5769825Y-16041484D02*
X5769825Y-16079579D01*
X6065063Y-16317674D02*
X6055539Y-16308150D01*
X6055539Y-16308150D02*
X6036491Y-16279579D01*
X6036491Y-16279579D02*
X6026968Y-16260531D01*
X6026968Y-16260531D02*
X6017444Y-16231960D01*
X6017444Y-16231960D02*
X6007920Y-16184341D01*
X6007920Y-16184341D02*
X6007920Y-16146246D01*
X6007920Y-16146246D02*
X6017444Y-16098627D01*
X6017444Y-16098627D02*
X6026968Y-16070055D01*
X6026968Y-16070055D02*
X6036491Y-16051008D01*
X6036491Y-16051008D02*
X6055539Y-16022436D01*
X6055539Y-16022436D02*
X6065063Y-16012912D01*
X6131729Y-16060531D02*
X6141253Y-16051008D01*
X6141253Y-16051008D02*
X6160301Y-16041484D01*
X6160301Y-16041484D02*
X6207920Y-16041484D01*
X6207920Y-16041484D02*
X6226968Y-16051008D01*
X6226968Y-16051008D02*
X6236491Y-16060531D01*
X6236491Y-16060531D02*
X6246015Y-16079579D01*
X6246015Y-16079579D02*
X6246015Y-16098627D01*
X6246015Y-16098627D02*
X6236491Y-16127198D01*
X6236491Y-16127198D02*
X6122206Y-16241484D01*
X6122206Y-16241484D02*
X6246015Y-16241484D01*
X6484110Y-16241484D02*
X6484110Y-16041484D01*
X6569825Y-16241484D02*
X6569825Y-16136722D01*
X6569825Y-16136722D02*
X6560301Y-16117674D01*
X6560301Y-16117674D02*
X6541253Y-16108150D01*
X6541253Y-16108150D02*
X6512682Y-16108150D01*
X6512682Y-16108150D02*
X6493634Y-16117674D01*
X6493634Y-16117674D02*
X6484110Y-16127198D01*
X6693634Y-16241484D02*
X6674587Y-16231960D01*
X6674587Y-16231960D02*
X6665063Y-16222436D01*
X6665063Y-16222436D02*
X6655539Y-16203388D01*
X6655539Y-16203388D02*
X6655539Y-16146246D01*
X6655539Y-16146246D02*
X6665063Y-16127198D01*
X6665063Y-16127198D02*
X6674587Y-16117674D01*
X6674587Y-16117674D02*
X6693634Y-16108150D01*
X6693634Y-16108150D02*
X6722206Y-16108150D01*
X6722206Y-16108150D02*
X6741253Y-16117674D01*
X6741253Y-16117674D02*
X6750777Y-16127198D01*
X6750777Y-16127198D02*
X6760301Y-16146246D01*
X6760301Y-16146246D02*
X6760301Y-16203388D01*
X6760301Y-16203388D02*
X6750777Y-16222436D01*
X6750777Y-16222436D02*
X6741253Y-16231960D01*
X6741253Y-16231960D02*
X6722206Y-16241484D01*
X6722206Y-16241484D02*
X6693634Y-16241484D01*
X6874587Y-16241484D02*
X6855539Y-16231960D01*
X6855539Y-16231960D02*
X6846015Y-16212912D01*
X6846015Y-16212912D02*
X6846015Y-16041484D01*
X7026968Y-16231960D02*
X7007920Y-16241484D01*
X7007920Y-16241484D02*
X6969825Y-16241484D01*
X6969825Y-16241484D02*
X6950777Y-16231960D01*
X6950777Y-16231960D02*
X6941253Y-16212912D01*
X6941253Y-16212912D02*
X6941253Y-16136722D01*
X6941253Y-16136722D02*
X6950777Y-16117674D01*
X6950777Y-16117674D02*
X6969825Y-16108150D01*
X6969825Y-16108150D02*
X7007920Y-16108150D01*
X7007920Y-16108150D02*
X7026968Y-16117674D01*
X7026968Y-16117674D02*
X7036491Y-16136722D01*
X7036491Y-16136722D02*
X7036491Y-16155769D01*
X7036491Y-16155769D02*
X6941253Y-16174817D01*
X7112682Y-16231960D02*
X7131730Y-16241484D01*
X7131730Y-16241484D02*
X7169825Y-16241484D01*
X7169825Y-16241484D02*
X7188872Y-16231960D01*
X7188872Y-16231960D02*
X7198396Y-16212912D01*
X7198396Y-16212912D02*
X7198396Y-16203388D01*
X7198396Y-16203388D02*
X7188872Y-16184341D01*
X7188872Y-16184341D02*
X7169825Y-16174817D01*
X7169825Y-16174817D02*
X7141253Y-16174817D01*
X7141253Y-16174817D02*
X7122206Y-16165293D01*
X7122206Y-16165293D02*
X7112682Y-16146246D01*
X7112682Y-16146246D02*
X7112682Y-16136722D01*
X7112682Y-16136722D02*
X7122206Y-16117674D01*
X7122206Y-16117674D02*
X7141253Y-16108150D01*
X7141253Y-16108150D02*
X7169825Y-16108150D01*
X7169825Y-16108150D02*
X7188872Y-16117674D01*
X7265063Y-16317674D02*
X7274587Y-16308150D01*
X7274587Y-16308150D02*
X7293634Y-16279579D01*
X7293634Y-16279579D02*
X7303158Y-16260531D01*
X7303158Y-16260531D02*
X7312682Y-16231960D01*
X7312682Y-16231960D02*
X7322206Y-16184341D01*
X7322206Y-16184341D02*
X7322206Y-16146246D01*
X7322206Y-16146246D02*
X7312682Y-16098627D01*
X7312682Y-16098627D02*
X7303158Y-16070055D01*
X7303158Y-16070055D02*
X7293634Y-16051008D01*
X7293634Y-16051008D02*
X7274587Y-16022436D01*
X7274587Y-16022436D02*
X7265063Y-16012912D01*
X7626968Y-16317674D02*
X7617444Y-16308150D01*
X7617444Y-16308150D02*
X7598396Y-16279579D01*
X7598396Y-16279579D02*
X7588872Y-16260531D01*
X7588872Y-16260531D02*
X7579349Y-16231960D01*
X7579349Y-16231960D02*
X7569825Y-16184341D01*
X7569825Y-16184341D02*
X7569825Y-16146246D01*
X7569825Y-16146246D02*
X7579349Y-16098627D01*
X7579349Y-16098627D02*
X7588872Y-16070055D01*
X7588872Y-16070055D02*
X7598396Y-16051008D01*
X7598396Y-16051008D02*
X7617444Y-16022436D01*
X7617444Y-16022436D02*
X7626968Y-16012912D01*
X7703158Y-16108150D02*
X7703158Y-16241484D01*
X7703158Y-16127198D02*
X7712682Y-16117674D01*
X7712682Y-16117674D02*
X7731730Y-16108150D01*
X7731730Y-16108150D02*
X7760301Y-16108150D01*
X7760301Y-16108150D02*
X7779349Y-16117674D01*
X7779349Y-16117674D02*
X7788872Y-16136722D01*
X7788872Y-16136722D02*
X7788872Y-16241484D01*
X7912682Y-16241484D02*
X7893634Y-16231960D01*
X7893634Y-16231960D02*
X7884111Y-16222436D01*
X7884111Y-16222436D02*
X7874587Y-16203388D01*
X7874587Y-16203388D02*
X7874587Y-16146246D01*
X7874587Y-16146246D02*
X7884111Y-16127198D01*
X7884111Y-16127198D02*
X7893634Y-16117674D01*
X7893634Y-16117674D02*
X7912682Y-16108150D01*
X7912682Y-16108150D02*
X7941253Y-16108150D01*
X7941253Y-16108150D02*
X7960301Y-16117674D01*
X7960301Y-16117674D02*
X7969825Y-16127198D01*
X7969825Y-16127198D02*
X7979349Y-16146246D01*
X7979349Y-16146246D02*
X7979349Y-16203388D01*
X7979349Y-16203388D02*
X7969825Y-16222436D01*
X7969825Y-16222436D02*
X7960301Y-16231960D01*
X7960301Y-16231960D02*
X7941253Y-16241484D01*
X7941253Y-16241484D02*
X7912682Y-16241484D01*
X8036492Y-16108150D02*
X8112682Y-16108150D01*
X8065063Y-16041484D02*
X8065063Y-16212912D01*
X8065063Y-16212912D02*
X8074587Y-16231960D01*
X8074587Y-16231960D02*
X8093634Y-16241484D01*
X8093634Y-16241484D02*
X8112682Y-16241484D01*
X8331730Y-16108150D02*
X8331730Y-16308150D01*
X8331730Y-16117674D02*
X8350777Y-16108150D01*
X8350777Y-16108150D02*
X8388873Y-16108150D01*
X8388873Y-16108150D02*
X8407920Y-16117674D01*
X8407920Y-16117674D02*
X8417444Y-16127198D01*
X8417444Y-16127198D02*
X8426968Y-16146246D01*
X8426968Y-16146246D02*
X8426968Y-16203388D01*
X8426968Y-16203388D02*
X8417444Y-16222436D01*
X8417444Y-16222436D02*
X8407920Y-16231960D01*
X8407920Y-16231960D02*
X8388873Y-16241484D01*
X8388873Y-16241484D02*
X8350777Y-16241484D01*
X8350777Y-16241484D02*
X8331730Y-16231960D01*
X8541254Y-16241484D02*
X8522206Y-16231960D01*
X8522206Y-16231960D02*
X8512682Y-16212912D01*
X8512682Y-16212912D02*
X8512682Y-16041484D01*
X8703158Y-16241484D02*
X8703158Y-16136722D01*
X8703158Y-16136722D02*
X8693635Y-16117674D01*
X8693635Y-16117674D02*
X8674587Y-16108150D01*
X8674587Y-16108150D02*
X8636492Y-16108150D01*
X8636492Y-16108150D02*
X8617444Y-16117674D01*
X8703158Y-16231960D02*
X8684111Y-16241484D01*
X8684111Y-16241484D02*
X8636492Y-16241484D01*
X8636492Y-16241484D02*
X8617444Y-16231960D01*
X8617444Y-16231960D02*
X8607920Y-16212912D01*
X8607920Y-16212912D02*
X8607920Y-16193865D01*
X8607920Y-16193865D02*
X8617444Y-16174817D01*
X8617444Y-16174817D02*
X8636492Y-16165293D01*
X8636492Y-16165293D02*
X8684111Y-16165293D01*
X8684111Y-16165293D02*
X8703158Y-16155769D01*
X8769825Y-16108150D02*
X8846015Y-16108150D01*
X8798396Y-16041484D02*
X8798396Y-16212912D01*
X8798396Y-16212912D02*
X8807920Y-16231960D01*
X8807920Y-16231960D02*
X8826968Y-16241484D01*
X8826968Y-16241484D02*
X8846015Y-16241484D01*
X8988873Y-16231960D02*
X8969825Y-16241484D01*
X8969825Y-16241484D02*
X8931730Y-16241484D01*
X8931730Y-16241484D02*
X8912682Y-16231960D01*
X8912682Y-16231960D02*
X8903158Y-16212912D01*
X8903158Y-16212912D02*
X8903158Y-16136722D01*
X8903158Y-16136722D02*
X8912682Y-16117674D01*
X8912682Y-16117674D02*
X8931730Y-16108150D01*
X8931730Y-16108150D02*
X8969825Y-16108150D01*
X8969825Y-16108150D02*
X8988873Y-16117674D01*
X8988873Y-16117674D02*
X8998396Y-16136722D01*
X8998396Y-16136722D02*
X8998396Y-16155769D01*
X8998396Y-16155769D02*
X8903158Y-16174817D01*
X9169825Y-16241484D02*
X9169825Y-16041484D01*
X9169825Y-16231960D02*
X9150777Y-16241484D01*
X9150777Y-16241484D02*
X9112682Y-16241484D01*
X9112682Y-16241484D02*
X9093635Y-16231960D01*
X9093635Y-16231960D02*
X9084111Y-16222436D01*
X9084111Y-16222436D02*
X9074587Y-16203388D01*
X9074587Y-16203388D02*
X9074587Y-16146246D01*
X9074587Y-16146246D02*
X9084111Y-16127198D01*
X9084111Y-16127198D02*
X9093635Y-16117674D01*
X9093635Y-16117674D02*
X9112682Y-16108150D01*
X9112682Y-16108150D02*
X9150777Y-16108150D01*
X9150777Y-16108150D02*
X9169825Y-16117674D01*
X9246016Y-16317674D02*
X9255539Y-16308150D01*
X9255539Y-16308150D02*
X9274587Y-16279579D01*
X9274587Y-16279579D02*
X9284111Y-16260531D01*
X9284111Y-16260531D02*
X9293635Y-16231960D01*
X9293635Y-16231960D02*
X9303158Y-16184341D01*
X9303158Y-16184341D02*
X9303158Y-16146246D01*
X9303158Y-16146246D02*
X9293635Y-16098627D01*
X9293635Y-16098627D02*
X9284111Y-16070055D01*
X9284111Y-16070055D02*
X9274587Y-16051008D01*
X9274587Y-16051008D02*
X9255539Y-16022436D01*
X9255539Y-16022436D02*
X9246016Y-16012912D01*
D11*
X2490000Y-16414000D02*
G75*
G02*
X2390000Y-16414000I-50000J0D01*
G01*
X2390000Y-16414000D02*
G75*
G02*
X2490000Y-16414000I50000J0D01*
G01*
D10*
X2855539Y-16505484D02*
X2741253Y-16505484D01*
X2798396Y-16505484D02*
X2798396Y-16305484D01*
X2798396Y-16305484D02*
X2779348Y-16334055D01*
X2779348Y-16334055D02*
X2760301Y-16353103D01*
X2760301Y-16353103D02*
X2741253Y-16362627D01*
X2941253Y-16486436D02*
X2950777Y-16495960D01*
X2950777Y-16495960D02*
X2941253Y-16505484D01*
X2941253Y-16505484D02*
X2931729Y-16495960D01*
X2931729Y-16495960D02*
X2941253Y-16486436D01*
X2941253Y-16486436D02*
X2941253Y-16505484D01*
X3074586Y-16305484D02*
X3093634Y-16305484D01*
X3093634Y-16305484D02*
X3112682Y-16315008D01*
X3112682Y-16315008D02*
X3122205Y-16324531D01*
X3122205Y-16324531D02*
X3131729Y-16343579D01*
X3131729Y-16343579D02*
X3141253Y-16381674D01*
X3141253Y-16381674D02*
X3141253Y-16429293D01*
X3141253Y-16429293D02*
X3131729Y-16467388D01*
X3131729Y-16467388D02*
X3122205Y-16486436D01*
X3122205Y-16486436D02*
X3112682Y-16495960D01*
X3112682Y-16495960D02*
X3093634Y-16505484D01*
X3093634Y-16505484D02*
X3074586Y-16505484D01*
X3074586Y-16505484D02*
X3055539Y-16495960D01*
X3055539Y-16495960D02*
X3046015Y-16486436D01*
X3046015Y-16486436D02*
X3036491Y-16467388D01*
X3036491Y-16467388D02*
X3026967Y-16429293D01*
X3026967Y-16429293D02*
X3026967Y-16381674D01*
X3026967Y-16381674D02*
X3036491Y-16343579D01*
X3036491Y-16343579D02*
X3046015Y-16324531D01*
X3046015Y-16324531D02*
X3055539Y-16315008D01*
X3055539Y-16315008D02*
X3074586Y-16305484D01*
X3265062Y-16305484D02*
X3284110Y-16305484D01*
X3284110Y-16305484D02*
X3303158Y-16315008D01*
X3303158Y-16315008D02*
X3312682Y-16324531D01*
X3312682Y-16324531D02*
X3322205Y-16343579D01*
X3322205Y-16343579D02*
X3331729Y-16381674D01*
X3331729Y-16381674D02*
X3331729Y-16429293D01*
X3331729Y-16429293D02*
X3322205Y-16467388D01*
X3322205Y-16467388D02*
X3312682Y-16486436D01*
X3312682Y-16486436D02*
X3303158Y-16495960D01*
X3303158Y-16495960D02*
X3284110Y-16505484D01*
X3284110Y-16505484D02*
X3265062Y-16505484D01*
X3265062Y-16505484D02*
X3246015Y-16495960D01*
X3246015Y-16495960D02*
X3236491Y-16486436D01*
X3236491Y-16486436D02*
X3226967Y-16467388D01*
X3226967Y-16467388D02*
X3217443Y-16429293D01*
X3217443Y-16429293D02*
X3217443Y-16381674D01*
X3217443Y-16381674D02*
X3226967Y-16343579D01*
X3226967Y-16343579D02*
X3236491Y-16324531D01*
X3236491Y-16324531D02*
X3246015Y-16315008D01*
X3246015Y-16315008D02*
X3265062Y-16305484D01*
X3455539Y-16305484D02*
X3474586Y-16305484D01*
X3474586Y-16305484D02*
X3493634Y-16315008D01*
X3493634Y-16315008D02*
X3503158Y-16324531D01*
X3503158Y-16324531D02*
X3512682Y-16343579D01*
X3512682Y-16343579D02*
X3522205Y-16381674D01*
X3522205Y-16381674D02*
X3522205Y-16429293D01*
X3522205Y-16429293D02*
X3512682Y-16467388D01*
X3512682Y-16467388D02*
X3503158Y-16486436D01*
X3503158Y-16486436D02*
X3493634Y-16495960D01*
X3493634Y-16495960D02*
X3474586Y-16505484D01*
X3474586Y-16505484D02*
X3455539Y-16505484D01*
X3455539Y-16505484D02*
X3436491Y-16495960D01*
X3436491Y-16495960D02*
X3426967Y-16486436D01*
X3426967Y-16486436D02*
X3417443Y-16467388D01*
X3417443Y-16467388D02*
X3407920Y-16429293D01*
X3407920Y-16429293D02*
X3407920Y-16381674D01*
X3407920Y-16381674D02*
X3417443Y-16343579D01*
X3417443Y-16343579D02*
X3426967Y-16324531D01*
X3426967Y-16324531D02*
X3436491Y-16315008D01*
X3436491Y-16315008D02*
X3455539Y-16305484D01*
X3607920Y-16505484D02*
X3607920Y-16372150D01*
X3607920Y-16391198D02*
X3617443Y-16381674D01*
X3617443Y-16381674D02*
X3636491Y-16372150D01*
X3636491Y-16372150D02*
X3665063Y-16372150D01*
X3665063Y-16372150D02*
X3684110Y-16381674D01*
X3684110Y-16381674D02*
X3693634Y-16400722D01*
X3693634Y-16400722D02*
X3693634Y-16505484D01*
X3693634Y-16400722D02*
X3703158Y-16381674D01*
X3703158Y-16381674D02*
X3722205Y-16372150D01*
X3722205Y-16372150D02*
X3750777Y-16372150D01*
X3750777Y-16372150D02*
X3769824Y-16381674D01*
X3769824Y-16381674D02*
X3779348Y-16400722D01*
X3779348Y-16400722D02*
X3779348Y-16505484D01*
X3874586Y-16505484D02*
X3874586Y-16372150D01*
X3874586Y-16391198D02*
X3884110Y-16381674D01*
X3884110Y-16381674D02*
X3903158Y-16372150D01*
X3903158Y-16372150D02*
X3931729Y-16372150D01*
X3931729Y-16372150D02*
X3950777Y-16381674D01*
X3950777Y-16381674D02*
X3960301Y-16400722D01*
X3960301Y-16400722D02*
X3960301Y-16505484D01*
X3960301Y-16400722D02*
X3969824Y-16381674D01*
X3969824Y-16381674D02*
X3988872Y-16372150D01*
X3988872Y-16372150D02*
X4017443Y-16372150D01*
X4017443Y-16372150D02*
X4036491Y-16381674D01*
X4036491Y-16381674D02*
X4046015Y-16400722D01*
X4046015Y-16400722D02*
X4046015Y-16505484D01*
X4436491Y-16295960D02*
X4265063Y-16553103D01*
X4693634Y-16305484D02*
X4712682Y-16305484D01*
X4712682Y-16305484D02*
X4731729Y-16315008D01*
X4731729Y-16315008D02*
X4741253Y-16324531D01*
X4741253Y-16324531D02*
X4750777Y-16343579D01*
X4750777Y-16343579D02*
X4760301Y-16381674D01*
X4760301Y-16381674D02*
X4760301Y-16429293D01*
X4760301Y-16429293D02*
X4750777Y-16467388D01*
X4750777Y-16467388D02*
X4741253Y-16486436D01*
X4741253Y-16486436D02*
X4731729Y-16495960D01*
X4731729Y-16495960D02*
X4712682Y-16505484D01*
X4712682Y-16505484D02*
X4693634Y-16505484D01*
X4693634Y-16505484D02*
X4674587Y-16495960D01*
X4674587Y-16495960D02*
X4665063Y-16486436D01*
X4665063Y-16486436D02*
X4655539Y-16467388D01*
X4655539Y-16467388D02*
X4646015Y-16429293D01*
X4646015Y-16429293D02*
X4646015Y-16381674D01*
X4646015Y-16381674D02*
X4655539Y-16343579D01*
X4655539Y-16343579D02*
X4665063Y-16324531D01*
X4665063Y-16324531D02*
X4674587Y-16315008D01*
X4674587Y-16315008D02*
X4693634Y-16305484D01*
X4846015Y-16486436D02*
X4855539Y-16495960D01*
X4855539Y-16495960D02*
X4846015Y-16505484D01*
X4846015Y-16505484D02*
X4836491Y-16495960D01*
X4836491Y-16495960D02*
X4846015Y-16486436D01*
X4846015Y-16486436D02*
X4846015Y-16505484D01*
X4979348Y-16305484D02*
X4998396Y-16305484D01*
X4998396Y-16305484D02*
X5017444Y-16315008D01*
X5017444Y-16315008D02*
X5026968Y-16324531D01*
X5026968Y-16324531D02*
X5036491Y-16343579D01*
X5036491Y-16343579D02*
X5046015Y-16381674D01*
X5046015Y-16381674D02*
X5046015Y-16429293D01*
X5046015Y-16429293D02*
X5036491Y-16467388D01*
X5036491Y-16467388D02*
X5026968Y-16486436D01*
X5026968Y-16486436D02*
X5017444Y-16495960D01*
X5017444Y-16495960D02*
X4998396Y-16505484D01*
X4998396Y-16505484D02*
X4979348Y-16505484D01*
X4979348Y-16505484D02*
X4960301Y-16495960D01*
X4960301Y-16495960D02*
X4950777Y-16486436D01*
X4950777Y-16486436D02*
X4941253Y-16467388D01*
X4941253Y-16467388D02*
X4931729Y-16429293D01*
X4931729Y-16429293D02*
X4931729Y-16381674D01*
X4931729Y-16381674D02*
X4941253Y-16343579D01*
X4941253Y-16343579D02*
X4950777Y-16324531D01*
X4950777Y-16324531D02*
X4960301Y-16315008D01*
X4960301Y-16315008D02*
X4979348Y-16305484D01*
X5112682Y-16305484D02*
X5236491Y-16305484D01*
X5236491Y-16305484D02*
X5169825Y-16381674D01*
X5169825Y-16381674D02*
X5198396Y-16381674D01*
X5198396Y-16381674D02*
X5217444Y-16391198D01*
X5217444Y-16391198D02*
X5226968Y-16400722D01*
X5226968Y-16400722D02*
X5236491Y-16419769D01*
X5236491Y-16419769D02*
X5236491Y-16467388D01*
X5236491Y-16467388D02*
X5226968Y-16486436D01*
X5226968Y-16486436D02*
X5217444Y-16495960D01*
X5217444Y-16495960D02*
X5198396Y-16505484D01*
X5198396Y-16505484D02*
X5141253Y-16505484D01*
X5141253Y-16505484D02*
X5122206Y-16495960D01*
X5122206Y-16495960D02*
X5112682Y-16486436D01*
X5331729Y-16505484D02*
X5369825Y-16505484D01*
X5369825Y-16505484D02*
X5388872Y-16495960D01*
X5388872Y-16495960D02*
X5398396Y-16486436D01*
X5398396Y-16486436D02*
X5417444Y-16457865D01*
X5417444Y-16457865D02*
X5426968Y-16419769D01*
X5426968Y-16419769D02*
X5426968Y-16343579D01*
X5426968Y-16343579D02*
X5417444Y-16324531D01*
X5417444Y-16324531D02*
X5407920Y-16315008D01*
X5407920Y-16315008D02*
X5388872Y-16305484D01*
X5388872Y-16305484D02*
X5350777Y-16305484D01*
X5350777Y-16305484D02*
X5331729Y-16315008D01*
X5331729Y-16315008D02*
X5322206Y-16324531D01*
X5322206Y-16324531D02*
X5312682Y-16343579D01*
X5312682Y-16343579D02*
X5312682Y-16391198D01*
X5312682Y-16391198D02*
X5322206Y-16410246D01*
X5322206Y-16410246D02*
X5331729Y-16419769D01*
X5331729Y-16419769D02*
X5350777Y-16429293D01*
X5350777Y-16429293D02*
X5388872Y-16429293D01*
X5388872Y-16429293D02*
X5407920Y-16419769D01*
X5407920Y-16419769D02*
X5417444Y-16410246D01*
X5417444Y-16410246D02*
X5426968Y-16391198D01*
X5598396Y-16372150D02*
X5598396Y-16505484D01*
X5550777Y-16295960D02*
X5503158Y-16438817D01*
X5503158Y-16438817D02*
X5626967Y-16438817D01*
X5693634Y-16305484D02*
X5693634Y-16343579D01*
X5769825Y-16305484D02*
X5769825Y-16343579D01*
X6065063Y-16581674D02*
X6055539Y-16572150D01*
X6055539Y-16572150D02*
X6036491Y-16543579D01*
X6036491Y-16543579D02*
X6026968Y-16524531D01*
X6026968Y-16524531D02*
X6017444Y-16495960D01*
X6017444Y-16495960D02*
X6007920Y-16448341D01*
X6007920Y-16448341D02*
X6007920Y-16410246D01*
X6007920Y-16410246D02*
X6017444Y-16362627D01*
X6017444Y-16362627D02*
X6026968Y-16334055D01*
X6026968Y-16334055D02*
X6036491Y-16315008D01*
X6036491Y-16315008D02*
X6055539Y-16286436D01*
X6055539Y-16286436D02*
X6065063Y-16276912D01*
X6131729Y-16324531D02*
X6141253Y-16315008D01*
X6141253Y-16315008D02*
X6160301Y-16305484D01*
X6160301Y-16305484D02*
X6207920Y-16305484D01*
X6207920Y-16305484D02*
X6226968Y-16315008D01*
X6226968Y-16315008D02*
X6236491Y-16324531D01*
X6236491Y-16324531D02*
X6246015Y-16343579D01*
X6246015Y-16343579D02*
X6246015Y-16362627D01*
X6246015Y-16362627D02*
X6236491Y-16391198D01*
X6236491Y-16391198D02*
X6122206Y-16505484D01*
X6122206Y-16505484D02*
X6246015Y-16505484D01*
X6484110Y-16505484D02*
X6484110Y-16305484D01*
X6569825Y-16505484D02*
X6569825Y-16400722D01*
X6569825Y-16400722D02*
X6560301Y-16381674D01*
X6560301Y-16381674D02*
X6541253Y-16372150D01*
X6541253Y-16372150D02*
X6512682Y-16372150D01*
X6512682Y-16372150D02*
X6493634Y-16381674D01*
X6493634Y-16381674D02*
X6484110Y-16391198D01*
X6693634Y-16505484D02*
X6674587Y-16495960D01*
X6674587Y-16495960D02*
X6665063Y-16486436D01*
X6665063Y-16486436D02*
X6655539Y-16467388D01*
X6655539Y-16467388D02*
X6655539Y-16410246D01*
X6655539Y-16410246D02*
X6665063Y-16391198D01*
X6665063Y-16391198D02*
X6674587Y-16381674D01*
X6674587Y-16381674D02*
X6693634Y-16372150D01*
X6693634Y-16372150D02*
X6722206Y-16372150D01*
X6722206Y-16372150D02*
X6741253Y-16381674D01*
X6741253Y-16381674D02*
X6750777Y-16391198D01*
X6750777Y-16391198D02*
X6760301Y-16410246D01*
X6760301Y-16410246D02*
X6760301Y-16467388D01*
X6760301Y-16467388D02*
X6750777Y-16486436D01*
X6750777Y-16486436D02*
X6741253Y-16495960D01*
X6741253Y-16495960D02*
X6722206Y-16505484D01*
X6722206Y-16505484D02*
X6693634Y-16505484D01*
X6874587Y-16505484D02*
X6855539Y-16495960D01*
X6855539Y-16495960D02*
X6846015Y-16476912D01*
X6846015Y-16476912D02*
X6846015Y-16305484D01*
X7026968Y-16495960D02*
X7007920Y-16505484D01*
X7007920Y-16505484D02*
X6969825Y-16505484D01*
X6969825Y-16505484D02*
X6950777Y-16495960D01*
X6950777Y-16495960D02*
X6941253Y-16476912D01*
X6941253Y-16476912D02*
X6941253Y-16400722D01*
X6941253Y-16400722D02*
X6950777Y-16381674D01*
X6950777Y-16381674D02*
X6969825Y-16372150D01*
X6969825Y-16372150D02*
X7007920Y-16372150D01*
X7007920Y-16372150D02*
X7026968Y-16381674D01*
X7026968Y-16381674D02*
X7036491Y-16400722D01*
X7036491Y-16400722D02*
X7036491Y-16419769D01*
X7036491Y-16419769D02*
X6941253Y-16438817D01*
X7112682Y-16495960D02*
X7131730Y-16505484D01*
X7131730Y-16505484D02*
X7169825Y-16505484D01*
X7169825Y-16505484D02*
X7188872Y-16495960D01*
X7188872Y-16495960D02*
X7198396Y-16476912D01*
X7198396Y-16476912D02*
X7198396Y-16467388D01*
X7198396Y-16467388D02*
X7188872Y-16448341D01*
X7188872Y-16448341D02*
X7169825Y-16438817D01*
X7169825Y-16438817D02*
X7141253Y-16438817D01*
X7141253Y-16438817D02*
X7122206Y-16429293D01*
X7122206Y-16429293D02*
X7112682Y-16410246D01*
X7112682Y-16410246D02*
X7112682Y-16400722D01*
X7112682Y-16400722D02*
X7122206Y-16381674D01*
X7122206Y-16381674D02*
X7141253Y-16372150D01*
X7141253Y-16372150D02*
X7169825Y-16372150D01*
X7169825Y-16372150D02*
X7188872Y-16381674D01*
X7265063Y-16581674D02*
X7274587Y-16572150D01*
X7274587Y-16572150D02*
X7293634Y-16543579D01*
X7293634Y-16543579D02*
X7303158Y-16524531D01*
X7303158Y-16524531D02*
X7312682Y-16495960D01*
X7312682Y-16495960D02*
X7322206Y-16448341D01*
X7322206Y-16448341D02*
X7322206Y-16410246D01*
X7322206Y-16410246D02*
X7312682Y-16362627D01*
X7312682Y-16362627D02*
X7303158Y-16334055D01*
X7303158Y-16334055D02*
X7293634Y-16315008D01*
X7293634Y-16315008D02*
X7274587Y-16286436D01*
X7274587Y-16286436D02*
X7265063Y-16276912D01*
X7626968Y-16581674D02*
X7617444Y-16572150D01*
X7617444Y-16572150D02*
X7598396Y-16543579D01*
X7598396Y-16543579D02*
X7588872Y-16524531D01*
X7588872Y-16524531D02*
X7579349Y-16495960D01*
X7579349Y-16495960D02*
X7569825Y-16448341D01*
X7569825Y-16448341D02*
X7569825Y-16410246D01*
X7569825Y-16410246D02*
X7579349Y-16362627D01*
X7579349Y-16362627D02*
X7588872Y-16334055D01*
X7588872Y-16334055D02*
X7598396Y-16315008D01*
X7598396Y-16315008D02*
X7617444Y-16286436D01*
X7617444Y-16286436D02*
X7626968Y-16276912D01*
X7703158Y-16372150D02*
X7703158Y-16505484D01*
X7703158Y-16391198D02*
X7712682Y-16381674D01*
X7712682Y-16381674D02*
X7731730Y-16372150D01*
X7731730Y-16372150D02*
X7760301Y-16372150D01*
X7760301Y-16372150D02*
X7779349Y-16381674D01*
X7779349Y-16381674D02*
X7788872Y-16400722D01*
X7788872Y-16400722D02*
X7788872Y-16505484D01*
X7912682Y-16505484D02*
X7893634Y-16495960D01*
X7893634Y-16495960D02*
X7884111Y-16486436D01*
X7884111Y-16486436D02*
X7874587Y-16467388D01*
X7874587Y-16467388D02*
X7874587Y-16410246D01*
X7874587Y-16410246D02*
X7884111Y-16391198D01*
X7884111Y-16391198D02*
X7893634Y-16381674D01*
X7893634Y-16381674D02*
X7912682Y-16372150D01*
X7912682Y-16372150D02*
X7941253Y-16372150D01*
X7941253Y-16372150D02*
X7960301Y-16381674D01*
X7960301Y-16381674D02*
X7969825Y-16391198D01*
X7969825Y-16391198D02*
X7979349Y-16410246D01*
X7979349Y-16410246D02*
X7979349Y-16467388D01*
X7979349Y-16467388D02*
X7969825Y-16486436D01*
X7969825Y-16486436D02*
X7960301Y-16495960D01*
X7960301Y-16495960D02*
X7941253Y-16505484D01*
X7941253Y-16505484D02*
X7912682Y-16505484D01*
X8036492Y-16372150D02*
X8112682Y-16372150D01*
X8065063Y-16305484D02*
X8065063Y-16476912D01*
X8065063Y-16476912D02*
X8074587Y-16495960D01*
X8074587Y-16495960D02*
X8093634Y-16505484D01*
X8093634Y-16505484D02*
X8112682Y-16505484D01*
X8331730Y-16372150D02*
X8331730Y-16572150D01*
X8331730Y-16381674D02*
X8350777Y-16372150D01*
X8350777Y-16372150D02*
X8388873Y-16372150D01*
X8388873Y-16372150D02*
X8407920Y-16381674D01*
X8407920Y-16381674D02*
X8417444Y-16391198D01*
X8417444Y-16391198D02*
X8426968Y-16410246D01*
X8426968Y-16410246D02*
X8426968Y-16467388D01*
X8426968Y-16467388D02*
X8417444Y-16486436D01*
X8417444Y-16486436D02*
X8407920Y-16495960D01*
X8407920Y-16495960D02*
X8388873Y-16505484D01*
X8388873Y-16505484D02*
X8350777Y-16505484D01*
X8350777Y-16505484D02*
X8331730Y-16495960D01*
X8541254Y-16505484D02*
X8522206Y-16495960D01*
X8522206Y-16495960D02*
X8512682Y-16476912D01*
X8512682Y-16476912D02*
X8512682Y-16305484D01*
X8703158Y-16505484D02*
X8703158Y-16400722D01*
X8703158Y-16400722D02*
X8693635Y-16381674D01*
X8693635Y-16381674D02*
X8674587Y-16372150D01*
X8674587Y-16372150D02*
X8636492Y-16372150D01*
X8636492Y-16372150D02*
X8617444Y-16381674D01*
X8703158Y-16495960D02*
X8684111Y-16505484D01*
X8684111Y-16505484D02*
X8636492Y-16505484D01*
X8636492Y-16505484D02*
X8617444Y-16495960D01*
X8617444Y-16495960D02*
X8607920Y-16476912D01*
X8607920Y-16476912D02*
X8607920Y-16457865D01*
X8607920Y-16457865D02*
X8617444Y-16438817D01*
X8617444Y-16438817D02*
X8636492Y-16429293D01*
X8636492Y-16429293D02*
X8684111Y-16429293D01*
X8684111Y-16429293D02*
X8703158Y-16419769D01*
X8769825Y-16372150D02*
X8846015Y-16372150D01*
X8798396Y-16305484D02*
X8798396Y-16476912D01*
X8798396Y-16476912D02*
X8807920Y-16495960D01*
X8807920Y-16495960D02*
X8826968Y-16505484D01*
X8826968Y-16505484D02*
X8846015Y-16505484D01*
X8988873Y-16495960D02*
X8969825Y-16505484D01*
X8969825Y-16505484D02*
X8931730Y-16505484D01*
X8931730Y-16505484D02*
X8912682Y-16495960D01*
X8912682Y-16495960D02*
X8903158Y-16476912D01*
X8903158Y-16476912D02*
X8903158Y-16400722D01*
X8903158Y-16400722D02*
X8912682Y-16381674D01*
X8912682Y-16381674D02*
X8931730Y-16372150D01*
X8931730Y-16372150D02*
X8969825Y-16372150D01*
X8969825Y-16372150D02*
X8988873Y-16381674D01*
X8988873Y-16381674D02*
X8998396Y-16400722D01*
X8998396Y-16400722D02*
X8998396Y-16419769D01*
X8998396Y-16419769D02*
X8903158Y-16438817D01*
X9169825Y-16505484D02*
X9169825Y-16305484D01*
X9169825Y-16495960D02*
X9150777Y-16505484D01*
X9150777Y-16505484D02*
X9112682Y-16505484D01*
X9112682Y-16505484D02*
X9093635Y-16495960D01*
X9093635Y-16495960D02*
X9084111Y-16486436D01*
X9084111Y-16486436D02*
X9074587Y-16467388D01*
X9074587Y-16467388D02*
X9074587Y-16410246D01*
X9074587Y-16410246D02*
X9084111Y-16391198D01*
X9084111Y-16391198D02*
X9093635Y-16381674D01*
X9093635Y-16381674D02*
X9112682Y-16372150D01*
X9112682Y-16372150D02*
X9150777Y-16372150D01*
X9150777Y-16372150D02*
X9169825Y-16381674D01*
X9246016Y-16581674D02*
X9255539Y-16572150D01*
X9255539Y-16572150D02*
X9274587Y-16543579D01*
X9274587Y-16543579D02*
X9284111Y-16524531D01*
X9284111Y-16524531D02*
X9293635Y-16495960D01*
X9293635Y-16495960D02*
X9303158Y-16448341D01*
X9303158Y-16448341D02*
X9303158Y-16410246D01*
X9303158Y-16410246D02*
X9293635Y-16362627D01*
X9293635Y-16362627D02*
X9284111Y-16334055D01*
X9284111Y-16334055D02*
X9274587Y-16315008D01*
X9274587Y-16315008D02*
X9255539Y-16286436D01*
X9255539Y-16286436D02*
X9246016Y-16276912D01*
D12*
X2439000Y-16627000D02*
X2439000Y-16729000D01*
X2388000Y-16678000D02*
X2490000Y-16678000D01*
D10*
X2855539Y-16769484D02*
X2741253Y-16769484D01*
X2798396Y-16769484D02*
X2798396Y-16569484D01*
X2798396Y-16569484D02*
X2779348Y-16598055D01*
X2779348Y-16598055D02*
X2760301Y-16617103D01*
X2760301Y-16617103D02*
X2741253Y-16626627D01*
X2941253Y-16750436D02*
X2950777Y-16759960D01*
X2950777Y-16759960D02*
X2941253Y-16769484D01*
X2941253Y-16769484D02*
X2931729Y-16759960D01*
X2931729Y-16759960D02*
X2941253Y-16750436D01*
X2941253Y-16750436D02*
X2941253Y-16769484D01*
X3074586Y-16569484D02*
X3093634Y-16569484D01*
X3093634Y-16569484D02*
X3112682Y-16579008D01*
X3112682Y-16579008D02*
X3122205Y-16588531D01*
X3122205Y-16588531D02*
X3131729Y-16607579D01*
X3131729Y-16607579D02*
X3141253Y-16645674D01*
X3141253Y-16645674D02*
X3141253Y-16693293D01*
X3141253Y-16693293D02*
X3131729Y-16731388D01*
X3131729Y-16731388D02*
X3122205Y-16750436D01*
X3122205Y-16750436D02*
X3112682Y-16759960D01*
X3112682Y-16759960D02*
X3093634Y-16769484D01*
X3093634Y-16769484D02*
X3074586Y-16769484D01*
X3074586Y-16769484D02*
X3055539Y-16759960D01*
X3055539Y-16759960D02*
X3046015Y-16750436D01*
X3046015Y-16750436D02*
X3036491Y-16731388D01*
X3036491Y-16731388D02*
X3026967Y-16693293D01*
X3026967Y-16693293D02*
X3026967Y-16645674D01*
X3026967Y-16645674D02*
X3036491Y-16607579D01*
X3036491Y-16607579D02*
X3046015Y-16588531D01*
X3046015Y-16588531D02*
X3055539Y-16579008D01*
X3055539Y-16579008D02*
X3074586Y-16569484D01*
X3217443Y-16588531D02*
X3226967Y-16579008D01*
X3226967Y-16579008D02*
X3246015Y-16569484D01*
X3246015Y-16569484D02*
X3293634Y-16569484D01*
X3293634Y-16569484D02*
X3312682Y-16579008D01*
X3312682Y-16579008D02*
X3322205Y-16588531D01*
X3322205Y-16588531D02*
X3331729Y-16607579D01*
X3331729Y-16607579D02*
X3331729Y-16626627D01*
X3331729Y-16626627D02*
X3322205Y-16655198D01*
X3322205Y-16655198D02*
X3207920Y-16769484D01*
X3207920Y-16769484D02*
X3331729Y-16769484D01*
X3455539Y-16569484D02*
X3474586Y-16569484D01*
X3474586Y-16569484D02*
X3493634Y-16579008D01*
X3493634Y-16579008D02*
X3503158Y-16588531D01*
X3503158Y-16588531D02*
X3512682Y-16607579D01*
X3512682Y-16607579D02*
X3522205Y-16645674D01*
X3522205Y-16645674D02*
X3522205Y-16693293D01*
X3522205Y-16693293D02*
X3512682Y-16731388D01*
X3512682Y-16731388D02*
X3503158Y-16750436D01*
X3503158Y-16750436D02*
X3493634Y-16759960D01*
X3493634Y-16759960D02*
X3474586Y-16769484D01*
X3474586Y-16769484D02*
X3455539Y-16769484D01*
X3455539Y-16769484D02*
X3436491Y-16759960D01*
X3436491Y-16759960D02*
X3426967Y-16750436D01*
X3426967Y-16750436D02*
X3417443Y-16731388D01*
X3417443Y-16731388D02*
X3407920Y-16693293D01*
X3407920Y-16693293D02*
X3407920Y-16645674D01*
X3407920Y-16645674D02*
X3417443Y-16607579D01*
X3417443Y-16607579D02*
X3426967Y-16588531D01*
X3426967Y-16588531D02*
X3436491Y-16579008D01*
X3436491Y-16579008D02*
X3455539Y-16569484D01*
X3607920Y-16769484D02*
X3607920Y-16636150D01*
X3607920Y-16655198D02*
X3617443Y-16645674D01*
X3617443Y-16645674D02*
X3636491Y-16636150D01*
X3636491Y-16636150D02*
X3665063Y-16636150D01*
X3665063Y-16636150D02*
X3684110Y-16645674D01*
X3684110Y-16645674D02*
X3693634Y-16664722D01*
X3693634Y-16664722D02*
X3693634Y-16769484D01*
X3693634Y-16664722D02*
X3703158Y-16645674D01*
X3703158Y-16645674D02*
X3722205Y-16636150D01*
X3722205Y-16636150D02*
X3750777Y-16636150D01*
X3750777Y-16636150D02*
X3769824Y-16645674D01*
X3769824Y-16645674D02*
X3779348Y-16664722D01*
X3779348Y-16664722D02*
X3779348Y-16769484D01*
X3874586Y-16769484D02*
X3874586Y-16636150D01*
X3874586Y-16655198D02*
X3884110Y-16645674D01*
X3884110Y-16645674D02*
X3903158Y-16636150D01*
X3903158Y-16636150D02*
X3931729Y-16636150D01*
X3931729Y-16636150D02*
X3950777Y-16645674D01*
X3950777Y-16645674D02*
X3960301Y-16664722D01*
X3960301Y-16664722D02*
X3960301Y-16769484D01*
X3960301Y-16664722D02*
X3969824Y-16645674D01*
X3969824Y-16645674D02*
X3988872Y-16636150D01*
X3988872Y-16636150D02*
X4017443Y-16636150D01*
X4017443Y-16636150D02*
X4036491Y-16645674D01*
X4036491Y-16645674D02*
X4046015Y-16664722D01*
X4046015Y-16664722D02*
X4046015Y-16769484D01*
X4436491Y-16559960D02*
X4265063Y-16817103D01*
X4693634Y-16569484D02*
X4712682Y-16569484D01*
X4712682Y-16569484D02*
X4731729Y-16579008D01*
X4731729Y-16579008D02*
X4741253Y-16588531D01*
X4741253Y-16588531D02*
X4750777Y-16607579D01*
X4750777Y-16607579D02*
X4760301Y-16645674D01*
X4760301Y-16645674D02*
X4760301Y-16693293D01*
X4760301Y-16693293D02*
X4750777Y-16731388D01*
X4750777Y-16731388D02*
X4741253Y-16750436D01*
X4741253Y-16750436D02*
X4731729Y-16759960D01*
X4731729Y-16759960D02*
X4712682Y-16769484D01*
X4712682Y-16769484D02*
X4693634Y-16769484D01*
X4693634Y-16769484D02*
X4674587Y-16759960D01*
X4674587Y-16759960D02*
X4665063Y-16750436D01*
X4665063Y-16750436D02*
X4655539Y-16731388D01*
X4655539Y-16731388D02*
X4646015Y-16693293D01*
X4646015Y-16693293D02*
X4646015Y-16645674D01*
X4646015Y-16645674D02*
X4655539Y-16607579D01*
X4655539Y-16607579D02*
X4665063Y-16588531D01*
X4665063Y-16588531D02*
X4674587Y-16579008D01*
X4674587Y-16579008D02*
X4693634Y-16569484D01*
X4846015Y-16750436D02*
X4855539Y-16759960D01*
X4855539Y-16759960D02*
X4846015Y-16769484D01*
X4846015Y-16769484D02*
X4836491Y-16759960D01*
X4836491Y-16759960D02*
X4846015Y-16750436D01*
X4846015Y-16750436D02*
X4846015Y-16769484D01*
X4979348Y-16569484D02*
X4998396Y-16569484D01*
X4998396Y-16569484D02*
X5017444Y-16579008D01*
X5017444Y-16579008D02*
X5026968Y-16588531D01*
X5026968Y-16588531D02*
X5036491Y-16607579D01*
X5036491Y-16607579D02*
X5046015Y-16645674D01*
X5046015Y-16645674D02*
X5046015Y-16693293D01*
X5046015Y-16693293D02*
X5036491Y-16731388D01*
X5036491Y-16731388D02*
X5026968Y-16750436D01*
X5026968Y-16750436D02*
X5017444Y-16759960D01*
X5017444Y-16759960D02*
X4998396Y-16769484D01*
X4998396Y-16769484D02*
X4979348Y-16769484D01*
X4979348Y-16769484D02*
X4960301Y-16759960D01*
X4960301Y-16759960D02*
X4950777Y-16750436D01*
X4950777Y-16750436D02*
X4941253Y-16731388D01*
X4941253Y-16731388D02*
X4931729Y-16693293D01*
X4931729Y-16693293D02*
X4931729Y-16645674D01*
X4931729Y-16645674D02*
X4941253Y-16607579D01*
X4941253Y-16607579D02*
X4950777Y-16588531D01*
X4950777Y-16588531D02*
X4960301Y-16579008D01*
X4960301Y-16579008D02*
X4979348Y-16569484D01*
X5217444Y-16636150D02*
X5217444Y-16769484D01*
X5169825Y-16559960D02*
X5122206Y-16702817D01*
X5122206Y-16702817D02*
X5246015Y-16702817D01*
X5360301Y-16569484D02*
X5379349Y-16569484D01*
X5379349Y-16569484D02*
X5398396Y-16579008D01*
X5398396Y-16579008D02*
X5407920Y-16588531D01*
X5407920Y-16588531D02*
X5417444Y-16607579D01*
X5417444Y-16607579D02*
X5426968Y-16645674D01*
X5426968Y-16645674D02*
X5426968Y-16693293D01*
X5426968Y-16693293D02*
X5417444Y-16731388D01*
X5417444Y-16731388D02*
X5407920Y-16750436D01*
X5407920Y-16750436D02*
X5398396Y-16759960D01*
X5398396Y-16759960D02*
X5379349Y-16769484D01*
X5379349Y-16769484D02*
X5360301Y-16769484D01*
X5360301Y-16769484D02*
X5341253Y-16759960D01*
X5341253Y-16759960D02*
X5331729Y-16750436D01*
X5331729Y-16750436D02*
X5322206Y-16731388D01*
X5322206Y-16731388D02*
X5312682Y-16693293D01*
X5312682Y-16693293D02*
X5312682Y-16645674D01*
X5312682Y-16645674D02*
X5322206Y-16607579D01*
X5322206Y-16607579D02*
X5331729Y-16588531D01*
X5331729Y-16588531D02*
X5341253Y-16579008D01*
X5341253Y-16579008D02*
X5360301Y-16569484D01*
X5503158Y-16588531D02*
X5512682Y-16579008D01*
X5512682Y-16579008D02*
X5531729Y-16569484D01*
X5531729Y-16569484D02*
X5579349Y-16569484D01*
X5579349Y-16569484D02*
X5598396Y-16579008D01*
X5598396Y-16579008D02*
X5607920Y-16588531D01*
X5607920Y-16588531D02*
X5617444Y-16607579D01*
X5617444Y-16607579D02*
X5617444Y-16626627D01*
X5617444Y-16626627D02*
X5607920Y-16655198D01*
X5607920Y-16655198D02*
X5493634Y-16769484D01*
X5493634Y-16769484D02*
X5617444Y-16769484D01*
X5693634Y-16569484D02*
X5693634Y-16607579D01*
X5769825Y-16569484D02*
X5769825Y-16607579D01*
X6065063Y-16845674D02*
X6055539Y-16836150D01*
X6055539Y-16836150D02*
X6036491Y-16807579D01*
X6036491Y-16807579D02*
X6026968Y-16788531D01*
X6026968Y-16788531D02*
X6017444Y-16759960D01*
X6017444Y-16759960D02*
X6007920Y-16712341D01*
X6007920Y-16712341D02*
X6007920Y-16674246D01*
X6007920Y-16674246D02*
X6017444Y-16626627D01*
X6017444Y-16626627D02*
X6026968Y-16598055D01*
X6026968Y-16598055D02*
X6036491Y-16579008D01*
X6036491Y-16579008D02*
X6055539Y-16550436D01*
X6055539Y-16550436D02*
X6065063Y-16540912D01*
X6131729Y-16588531D02*
X6141253Y-16579008D01*
X6141253Y-16579008D02*
X6160301Y-16569484D01*
X6160301Y-16569484D02*
X6207920Y-16569484D01*
X6207920Y-16569484D02*
X6226968Y-16579008D01*
X6226968Y-16579008D02*
X6236491Y-16588531D01*
X6236491Y-16588531D02*
X6246015Y-16607579D01*
X6246015Y-16607579D02*
X6246015Y-16626627D01*
X6246015Y-16626627D02*
X6236491Y-16655198D01*
X6236491Y-16655198D02*
X6122206Y-16769484D01*
X6122206Y-16769484D02*
X6246015Y-16769484D01*
X6484110Y-16769484D02*
X6484110Y-16569484D01*
X6569825Y-16769484D02*
X6569825Y-16664722D01*
X6569825Y-16664722D02*
X6560301Y-16645674D01*
X6560301Y-16645674D02*
X6541253Y-16636150D01*
X6541253Y-16636150D02*
X6512682Y-16636150D01*
X6512682Y-16636150D02*
X6493634Y-16645674D01*
X6493634Y-16645674D02*
X6484110Y-16655198D01*
X6693634Y-16769484D02*
X6674587Y-16759960D01*
X6674587Y-16759960D02*
X6665063Y-16750436D01*
X6665063Y-16750436D02*
X6655539Y-16731388D01*
X6655539Y-16731388D02*
X6655539Y-16674246D01*
X6655539Y-16674246D02*
X6665063Y-16655198D01*
X6665063Y-16655198D02*
X6674587Y-16645674D01*
X6674587Y-16645674D02*
X6693634Y-16636150D01*
X6693634Y-16636150D02*
X6722206Y-16636150D01*
X6722206Y-16636150D02*
X6741253Y-16645674D01*
X6741253Y-16645674D02*
X6750777Y-16655198D01*
X6750777Y-16655198D02*
X6760301Y-16674246D01*
X6760301Y-16674246D02*
X6760301Y-16731388D01*
X6760301Y-16731388D02*
X6750777Y-16750436D01*
X6750777Y-16750436D02*
X6741253Y-16759960D01*
X6741253Y-16759960D02*
X6722206Y-16769484D01*
X6722206Y-16769484D02*
X6693634Y-16769484D01*
X6874587Y-16769484D02*
X6855539Y-16759960D01*
X6855539Y-16759960D02*
X6846015Y-16740912D01*
X6846015Y-16740912D02*
X6846015Y-16569484D01*
X7026968Y-16759960D02*
X7007920Y-16769484D01*
X7007920Y-16769484D02*
X6969825Y-16769484D01*
X6969825Y-16769484D02*
X6950777Y-16759960D01*
X6950777Y-16759960D02*
X6941253Y-16740912D01*
X6941253Y-16740912D02*
X6941253Y-16664722D01*
X6941253Y-16664722D02*
X6950777Y-16645674D01*
X6950777Y-16645674D02*
X6969825Y-16636150D01*
X6969825Y-16636150D02*
X7007920Y-16636150D01*
X7007920Y-16636150D02*
X7026968Y-16645674D01*
X7026968Y-16645674D02*
X7036491Y-16664722D01*
X7036491Y-16664722D02*
X7036491Y-16683769D01*
X7036491Y-16683769D02*
X6941253Y-16702817D01*
X7112682Y-16759960D02*
X7131730Y-16769484D01*
X7131730Y-16769484D02*
X7169825Y-16769484D01*
X7169825Y-16769484D02*
X7188872Y-16759960D01*
X7188872Y-16759960D02*
X7198396Y-16740912D01*
X7198396Y-16740912D02*
X7198396Y-16731388D01*
X7198396Y-16731388D02*
X7188872Y-16712341D01*
X7188872Y-16712341D02*
X7169825Y-16702817D01*
X7169825Y-16702817D02*
X7141253Y-16702817D01*
X7141253Y-16702817D02*
X7122206Y-16693293D01*
X7122206Y-16693293D02*
X7112682Y-16674246D01*
X7112682Y-16674246D02*
X7112682Y-16664722D01*
X7112682Y-16664722D02*
X7122206Y-16645674D01*
X7122206Y-16645674D02*
X7141253Y-16636150D01*
X7141253Y-16636150D02*
X7169825Y-16636150D01*
X7169825Y-16636150D02*
X7188872Y-16645674D01*
X7265063Y-16845674D02*
X7274587Y-16836150D01*
X7274587Y-16836150D02*
X7293634Y-16807579D01*
X7293634Y-16807579D02*
X7303158Y-16788531D01*
X7303158Y-16788531D02*
X7312682Y-16759960D01*
X7312682Y-16759960D02*
X7322206Y-16712341D01*
X7322206Y-16712341D02*
X7322206Y-16674246D01*
X7322206Y-16674246D02*
X7312682Y-16626627D01*
X7312682Y-16626627D02*
X7303158Y-16598055D01*
X7303158Y-16598055D02*
X7293634Y-16579008D01*
X7293634Y-16579008D02*
X7274587Y-16550436D01*
X7274587Y-16550436D02*
X7265063Y-16540912D01*
X7626968Y-16845674D02*
X7617444Y-16836150D01*
X7617444Y-16836150D02*
X7598396Y-16807579D01*
X7598396Y-16807579D02*
X7588872Y-16788531D01*
X7588872Y-16788531D02*
X7579349Y-16759960D01*
X7579349Y-16759960D02*
X7569825Y-16712341D01*
X7569825Y-16712341D02*
X7569825Y-16674246D01*
X7569825Y-16674246D02*
X7579349Y-16626627D01*
X7579349Y-16626627D02*
X7588872Y-16598055D01*
X7588872Y-16598055D02*
X7598396Y-16579008D01*
X7598396Y-16579008D02*
X7617444Y-16550436D01*
X7617444Y-16550436D02*
X7626968Y-16540912D01*
X7703158Y-16636150D02*
X7703158Y-16769484D01*
X7703158Y-16655198D02*
X7712682Y-16645674D01*
X7712682Y-16645674D02*
X7731730Y-16636150D01*
X7731730Y-16636150D02*
X7760301Y-16636150D01*
X7760301Y-16636150D02*
X7779349Y-16645674D01*
X7779349Y-16645674D02*
X7788872Y-16664722D01*
X7788872Y-16664722D02*
X7788872Y-16769484D01*
X7912682Y-16769484D02*
X7893634Y-16759960D01*
X7893634Y-16759960D02*
X7884111Y-16750436D01*
X7884111Y-16750436D02*
X7874587Y-16731388D01*
X7874587Y-16731388D02*
X7874587Y-16674246D01*
X7874587Y-16674246D02*
X7884111Y-16655198D01*
X7884111Y-16655198D02*
X7893634Y-16645674D01*
X7893634Y-16645674D02*
X7912682Y-16636150D01*
X7912682Y-16636150D02*
X7941253Y-16636150D01*
X7941253Y-16636150D02*
X7960301Y-16645674D01*
X7960301Y-16645674D02*
X7969825Y-16655198D01*
X7969825Y-16655198D02*
X7979349Y-16674246D01*
X7979349Y-16674246D02*
X7979349Y-16731388D01*
X7979349Y-16731388D02*
X7969825Y-16750436D01*
X7969825Y-16750436D02*
X7960301Y-16759960D01*
X7960301Y-16759960D02*
X7941253Y-16769484D01*
X7941253Y-16769484D02*
X7912682Y-16769484D01*
X8036492Y-16636150D02*
X8112682Y-16636150D01*
X8065063Y-16569484D02*
X8065063Y-16740912D01*
X8065063Y-16740912D02*
X8074587Y-16759960D01*
X8074587Y-16759960D02*
X8093634Y-16769484D01*
X8093634Y-16769484D02*
X8112682Y-16769484D01*
X8331730Y-16636150D02*
X8331730Y-16836150D01*
X8331730Y-16645674D02*
X8350777Y-16636150D01*
X8350777Y-16636150D02*
X8388873Y-16636150D01*
X8388873Y-16636150D02*
X8407920Y-16645674D01*
X8407920Y-16645674D02*
X8417444Y-16655198D01*
X8417444Y-16655198D02*
X8426968Y-16674246D01*
X8426968Y-16674246D02*
X8426968Y-16731388D01*
X8426968Y-16731388D02*
X8417444Y-16750436D01*
X8417444Y-16750436D02*
X8407920Y-16759960D01*
X8407920Y-16759960D02*
X8388873Y-16769484D01*
X8388873Y-16769484D02*
X8350777Y-16769484D01*
X8350777Y-16769484D02*
X8331730Y-16759960D01*
X8541254Y-16769484D02*
X8522206Y-16759960D01*
X8522206Y-16759960D02*
X8512682Y-16740912D01*
X8512682Y-16740912D02*
X8512682Y-16569484D01*
X8703158Y-16769484D02*
X8703158Y-16664722D01*
X8703158Y-16664722D02*
X8693635Y-16645674D01*
X8693635Y-16645674D02*
X8674587Y-16636150D01*
X8674587Y-16636150D02*
X8636492Y-16636150D01*
X8636492Y-16636150D02*
X8617444Y-16645674D01*
X8703158Y-16759960D02*
X8684111Y-16769484D01*
X8684111Y-16769484D02*
X8636492Y-16769484D01*
X8636492Y-16769484D02*
X8617444Y-16759960D01*
X8617444Y-16759960D02*
X8607920Y-16740912D01*
X8607920Y-16740912D02*
X8607920Y-16721865D01*
X8607920Y-16721865D02*
X8617444Y-16702817D01*
X8617444Y-16702817D02*
X8636492Y-16693293D01*
X8636492Y-16693293D02*
X8684111Y-16693293D01*
X8684111Y-16693293D02*
X8703158Y-16683769D01*
X8769825Y-16636150D02*
X8846015Y-16636150D01*
X8798396Y-16569484D02*
X8798396Y-16740912D01*
X8798396Y-16740912D02*
X8807920Y-16759960D01*
X8807920Y-16759960D02*
X8826968Y-16769484D01*
X8826968Y-16769484D02*
X8846015Y-16769484D01*
X8988873Y-16759960D02*
X8969825Y-16769484D01*
X8969825Y-16769484D02*
X8931730Y-16769484D01*
X8931730Y-16769484D02*
X8912682Y-16759960D01*
X8912682Y-16759960D02*
X8903158Y-16740912D01*
X8903158Y-16740912D02*
X8903158Y-16664722D01*
X8903158Y-16664722D02*
X8912682Y-16645674D01*
X8912682Y-16645674D02*
X8931730Y-16636150D01*
X8931730Y-16636150D02*
X8969825Y-16636150D01*
X8969825Y-16636150D02*
X8988873Y-16645674D01*
X8988873Y-16645674D02*
X8998396Y-16664722D01*
X8998396Y-16664722D02*
X8998396Y-16683769D01*
X8998396Y-16683769D02*
X8903158Y-16702817D01*
X9169825Y-16769484D02*
X9169825Y-16569484D01*
X9169825Y-16759960D02*
X9150777Y-16769484D01*
X9150777Y-16769484D02*
X9112682Y-16769484D01*
X9112682Y-16769484D02*
X9093635Y-16759960D01*
X9093635Y-16759960D02*
X9084111Y-16750436D01*
X9084111Y-16750436D02*
X9074587Y-16731388D01*
X9074587Y-16731388D02*
X9074587Y-16674246D01*
X9074587Y-16674246D02*
X9084111Y-16655198D01*
X9084111Y-16655198D02*
X9093635Y-16645674D01*
X9093635Y-16645674D02*
X9112682Y-16636150D01*
X9112682Y-16636150D02*
X9150777Y-16636150D01*
X9150777Y-16636150D02*
X9169825Y-16645674D01*
X9246016Y-16845674D02*
X9255539Y-16836150D01*
X9255539Y-16836150D02*
X9274587Y-16807579D01*
X9274587Y-16807579D02*
X9284111Y-16788531D01*
X9284111Y-16788531D02*
X9293635Y-16759960D01*
X9293635Y-16759960D02*
X9303158Y-16712341D01*
X9303158Y-16712341D02*
X9303158Y-16674246D01*
X9303158Y-16674246D02*
X9293635Y-16626627D01*
X9293635Y-16626627D02*
X9284111Y-16598055D01*
X9284111Y-16598055D02*
X9274587Y-16579008D01*
X9274587Y-16579008D02*
X9255539Y-16550436D01*
X9255539Y-16550436D02*
X9246016Y-16540912D01*
M02*
