%TF.GenerationSoftware,KiCad,Pcbnew,8.0.1*%
%TF.CreationDate,2024-03-19T23:57:42+08:00*%
%TF.ProjectId,bigger-brain,62696767-6572-42d6-9272-61696e2e6b69,2*%
%TF.SameCoordinates,Original*%
%TF.FileFunction,Soldermask,Bot*%
%TF.FilePolarity,Negative*%
%FSLAX46Y46*%
G04 Gerber Fmt 4.6, Leading zero omitted, Abs format (unit mm)*
G04 Created by KiCad (PCBNEW 8.0.1) date 2024-03-19 23:57:42*
%MOMM*%
%LPD*%
G01*
G04 APERTURE LIST*
G04 Aperture macros list*
%AMRoundRect*
0 Rectangle with rounded corners*
0 $1 Rounding radius*
0 $2 $3 $4 $5 $6 $7 $8 $9 X,Y pos of 4 corners*
0 Add a 4 corners polygon primitive as box body*
4,1,4,$2,$3,$4,$5,$6,$7,$8,$9,$2,$3,0*
0 Add four circle primitives for the rounded corners*
1,1,$1+$1,$2,$3*
1,1,$1+$1,$4,$5*
1,1,$1+$1,$6,$7*
1,1,$1+$1,$8,$9*
0 Add four rect primitives between the rounded corners*
20,1,$1+$1,$2,$3,$4,$5,0*
20,1,$1+$1,$4,$5,$6,$7,0*
20,1,$1+$1,$6,$7,$8,$9,0*
20,1,$1+$1,$8,$9,$2,$3,0*%
G04 Aperture macros list end*
%ADD10RoundRect,0.250000X-0.625000X0.350000X-0.625000X-0.350000X0.625000X-0.350000X0.625000X0.350000X0*%
%ADD11O,1.750000X1.200000*%
%ADD12C,4.700000*%
%ADD13C,7.500000*%
%ADD14RoundRect,0.250000X-0.350000X-0.625000X0.350000X-0.625000X0.350000X0.625000X-0.350000X0.625000X0*%
%ADD15O,1.200000X1.750000*%
%ADD16R,1.700000X1.700000*%
%ADD17O,1.700000X1.700000*%
%ADD18C,0.650000*%
%ADD19O,2.100000X1.000000*%
%ADD20O,1.600000X1.000000*%
%ADD21RoundRect,0.250000X0.350000X-0.350000X0.350000X0.350000X-0.350000X0.350000X-0.350000X-0.350000X0*%
%ADD22C,1.200000*%
%ADD23C,0.999997*%
%ADD24C,1.020000*%
%ADD25RoundRect,0.250001X-0.499999X0.499999X-0.499999X-0.499999X0.499999X-0.499999X0.499999X0.499999X0*%
%ADD26C,1.500000*%
G04 APERTURE END LIST*
D10*
%TO.C,J414*%
X51027276Y-72181808D03*
D11*
X51027276Y-74181808D03*
X51027276Y-76181808D03*
X51027276Y-78181808D03*
X51027276Y-80181808D03*
%TD*%
D12*
%TO.C,H404*%
X119000000Y-149000000D03*
D13*
X119000000Y-149000000D03*
%TD*%
D10*
%TO.C,J418*%
X73027276Y-72181807D03*
D11*
X73027276Y-74181807D03*
X73027276Y-76181807D03*
X73027276Y-78181807D03*
X73027276Y-80181807D03*
%TD*%
D10*
%TO.C,J424*%
X80500000Y-144250000D03*
D11*
X80500000Y-146250000D03*
X80500000Y-148250000D03*
X80500000Y-150250000D03*
X80500000Y-152250000D03*
%TD*%
D14*
%TO.C,J410*%
X44749999Y-65199998D03*
D15*
X46749999Y-65199998D03*
%TD*%
D16*
%TO.C,J403*%
X108809415Y-131697663D03*
D17*
X108809415Y-134237663D03*
X106269415Y-131697663D03*
X106269415Y-134237663D03*
X103729415Y-131697663D03*
X103729415Y-134237663D03*
X101189415Y-131697663D03*
X101189415Y-134237663D03*
X98649415Y-131697663D03*
X98649415Y-134237663D03*
X96109415Y-131697663D03*
X96109415Y-134237663D03*
X93569415Y-131697663D03*
X93569415Y-134237663D03*
X91029415Y-131697663D03*
X91029415Y-134237663D03*
X88489415Y-131697663D03*
X88489415Y-134237663D03*
X85949415Y-131697663D03*
X85949415Y-134237663D03*
X83409415Y-131697663D03*
X83409415Y-134237663D03*
X80869415Y-131697663D03*
X80869415Y-134237663D03*
X78329415Y-131697663D03*
X78329415Y-134237663D03*
X75789415Y-131697663D03*
X75789415Y-134237663D03*
X73249415Y-131697663D03*
X73249415Y-134237663D03*
X70709415Y-131697663D03*
X70709415Y-134237663D03*
X68169415Y-131697663D03*
X68169415Y-134237663D03*
X65629415Y-131697663D03*
X65629415Y-134237663D03*
X63089415Y-131697663D03*
X63089415Y-134237663D03*
X60549415Y-131697663D03*
X60549415Y-134237663D03*
%TD*%
D12*
%TO.C,H401*%
X31000000Y-61000000D03*
D13*
X31000000Y-61000000D03*
%TD*%
D10*
%TO.C,J419*%
X78527276Y-72181807D03*
D11*
X78527276Y-74181807D03*
X78527276Y-76181807D03*
X78527276Y-78181807D03*
X78527276Y-80181807D03*
%TD*%
D14*
%TO.C,J411*%
X51749999Y-65199998D03*
D15*
X53749999Y-65199998D03*
%TD*%
D10*
%TO.C,J409*%
X78527276Y-57681807D03*
D11*
X78527276Y-59681807D03*
X78527276Y-61681807D03*
X78527276Y-63681807D03*
X78527276Y-65681807D03*
%TD*%
D10*
%TO.C,J417*%
X67527276Y-72181807D03*
D11*
X67527276Y-74181807D03*
X67527276Y-76181807D03*
X67527276Y-78181807D03*
X67527276Y-80181807D03*
%TD*%
D14*
%TO.C,J405*%
X51749999Y-58199999D03*
D15*
X53749999Y-58199999D03*
%TD*%
D14*
%TO.C,J404*%
X44749999Y-58199999D03*
D15*
X46749999Y-58199999D03*
%TD*%
D10*
%TO.C,J407*%
X67527276Y-57681807D03*
D11*
X67527276Y-59681807D03*
X67527276Y-61681807D03*
X67527276Y-63681807D03*
X67527276Y-65681807D03*
%TD*%
D10*
%TO.C,J426*%
X91500000Y-144250000D03*
D11*
X91500000Y-146250000D03*
X91500000Y-148250000D03*
X91500000Y-150250000D03*
X91500000Y-152250000D03*
%TD*%
D14*
%TO.C,J406*%
X58749999Y-58199999D03*
D15*
X60749999Y-58199999D03*
%TD*%
D10*
%TO.C,J415*%
X56527276Y-72181805D03*
D11*
X56527276Y-74181805D03*
X56527276Y-76181805D03*
X56527276Y-78181805D03*
X56527276Y-80181805D03*
%TD*%
D18*
%TO.C,J401*%
X119400000Y-107890000D03*
X119400000Y-102110000D03*
D19*
X118870000Y-109320000D03*
D20*
X123050000Y-109320000D03*
D19*
X118870000Y-100680000D03*
D20*
X123050000Y-100680000D03*
%TD*%
D21*
%TO.C,J421*%
X61500000Y-150250000D03*
D22*
X63500000Y-150250000D03*
X61500000Y-148250000D03*
X63500000Y-148250000D03*
X61500000Y-146250000D03*
X63500000Y-146250000D03*
X61500000Y-144250000D03*
X63500000Y-144250000D03*
%TD*%
D12*
%TO.C,H402*%
X119000000Y-61000000D03*
D13*
X119000000Y-61000000D03*
%TD*%
D21*
%TO.C,SWD401*%
X84000000Y-63750000D03*
D22*
X86000000Y-63750000D03*
X84000000Y-61750000D03*
X86000000Y-61750000D03*
X84000000Y-59750000D03*
X86000000Y-59750000D03*
X84000000Y-57750000D03*
X86000000Y-57750000D03*
%TD*%
D10*
%TO.C,J423*%
X75000000Y-144250000D03*
D11*
X75000000Y-146250000D03*
X75000000Y-148250000D03*
X75000000Y-150250000D03*
X75000000Y-152250000D03*
%TD*%
D12*
%TO.C,H403*%
X31000000Y-149000000D03*
D13*
X31000000Y-149000000D03*
%TD*%
D14*
%TO.C,J412*%
X58749999Y-65199998D03*
D15*
X60749999Y-65199998D03*
%TD*%
D10*
%TO.C,J413*%
X45527276Y-72181807D03*
D11*
X45527276Y-74181807D03*
X45527276Y-76181807D03*
X45527276Y-78181807D03*
X45527276Y-80181807D03*
%TD*%
D23*
%TO.C,J301*%
X119909345Y-84840000D03*
X119909345Y-76864400D03*
%TD*%
D10*
%TO.C,J416*%
X62027276Y-72181807D03*
D11*
X62027276Y-74181807D03*
X62027276Y-76181807D03*
X62027276Y-78181807D03*
X62027276Y-80181807D03*
%TD*%
D10*
%TO.C,J425*%
X86000000Y-144250000D03*
D11*
X86000000Y-146250000D03*
X86000000Y-148250000D03*
X86000000Y-150250000D03*
X86000000Y-152250000D03*
%TD*%
D10*
%TO.C,J408*%
X73027276Y-57681807D03*
D11*
X73027276Y-59681807D03*
X73027276Y-61681807D03*
X73027276Y-63681807D03*
X73027276Y-65681807D03*
%TD*%
D21*
%TO.C,J427*%
X96250000Y-150250000D03*
D22*
X98250000Y-150250000D03*
X96250000Y-148250000D03*
X98250000Y-148250000D03*
X96250000Y-146250000D03*
X98250000Y-146250000D03*
X96250000Y-144250000D03*
X98250000Y-144250000D03*
%TD*%
D24*
%TO.C,J402*%
X29460000Y-88400000D03*
X29460000Y-121400000D03*
D25*
X33400000Y-91400000D03*
D26*
X33400000Y-94400000D03*
X33400000Y-97400000D03*
X33400000Y-100400000D03*
X33400000Y-103400000D03*
X33400000Y-106400000D03*
X33400000Y-109400000D03*
X33400000Y-112400000D03*
X33400000Y-115400000D03*
X33400000Y-118400000D03*
X30400000Y-91400000D03*
X30400000Y-94400000D03*
X30400000Y-97400000D03*
X30400000Y-100400000D03*
X30400000Y-103400000D03*
X30400000Y-106400000D03*
X30400000Y-109400000D03*
X30400000Y-112400000D03*
X30400000Y-115400000D03*
X30400000Y-118400000D03*
%TD*%
D21*
%TO.C,J420*%
X84000000Y-78250000D03*
D22*
X86000000Y-78250000D03*
X84000000Y-76250000D03*
X86000000Y-76250000D03*
X84000000Y-74250000D03*
X86000000Y-74250000D03*
X84000000Y-72250000D03*
X86000000Y-72250000D03*
%TD*%
D10*
%TO.C,J422*%
X69500000Y-144249998D03*
D11*
X69500000Y-146249998D03*
X69500000Y-148249998D03*
X69500000Y-150249998D03*
X69500000Y-152249998D03*
%TD*%
M02*
