M48
; DRILL file {KiCad 8.0.1} date 2024-03-19T22:33:07+0800
; FORMAT={-:-/ absolute / metric / decimal}
; #@! TF.CreationDate,2024-03-19T22:33:07+08:00
; #@! TF.GenerationSoftware,Kicad,Pcbnew,8.0.1
; #@! TF.FileFunction,Plated,1,4,PTH
FMAT,2
METRIC
; #@! TA.AperFunction,Plated,PTH,ViaDrill
T1C0.300
; #@! TA.AperFunction,Plated,PTH,ViaDrill
T2C0.350
; #@! TA.AperFunction,Plated,PTH,ViaDrill
T3C0.400
; #@! TA.AperFunction,Plated,PTH,ComponentDrill
T4C0.600
; #@! TA.AperFunction,Plated,PTH,ComponentDrill
T5C0.750
; #@! TA.AperFunction,Plated,PTH,ComponentDrill
T6C1.000
; #@! TA.AperFunction,Plated,PTH,ComponentDrill
T7C1.020
; #@! TA.AperFunction,Plated,PTH,ComponentDrill
T8C4.300
%
G90
G05
T1
X41.0Y-141.25
X41.0Y-148.75
X49.3Y-141.6
X53.15Y-146.05
X55.0Y-91.7
X55.0Y-95.51
X55.0Y-104.5
X55.0Y-109.8
X55.0Y-113.6
X55.05Y-100.65
X56.9Y-146.05
X57.9Y-153.55
X58.6Y-84.2
X59.3Y-105.4
X61.889Y-136.25
X63.6Y-81.9
X64.289Y-136.289
X65.3Y-98.8
X65.357Y-105.935
X65.8Y-96.5
X65.8Y-97.3
X65.8Y-106.6
X66.2Y-98.8
X66.45Y-104.2
X66.55Y-94.05
X67.0Y-136.75
X67.2Y-102.0
X68.2Y-101.6
X68.75Y-127.5
X69.5Y-138.25
X70.5Y-129.25
X70.5Y-137.0
X71.081Y-91.4
X71.95Y-108.35
X72.0Y-85.05
X72.2Y-91.4
X72.259Y-94.141
X72.8Y-85.05
X73.0Y-93.4
X73.0Y-123.0
X74.25Y-122.0
X74.4Y-85.55
X75.6Y-124.2
X76.6Y-100.4
X77.6Y-100.4
X77.7Y-92.0
X78.3Y-91.3
X78.6Y-83.5
X79.791Y-90.409
X80.2Y-88.4
X80.4Y-87.4
X80.4Y-89.6
X82.5Y-76.25
X83.2Y-85.6
X83.2Y-124.7
X83.75Y-82.75
X86.15Y-66.579
X86.599Y-127.5
X87.25Y-64.75
X88.0Y-117.5
X88.2Y-85.6
X88.5Y-124.7
X88.75Y-65.25
X89.0Y-72.0
X89.5Y-71.25
X89.75Y-96.837
X90.25Y-70.25
X91.0Y-69.5
X91.75Y-66.9
X91.75Y-97.75
X92.331Y-119.0
X92.369Y-136.25
X92.741Y-99.003
X93.019Y-119.75
X93.5Y-98.75
X93.75Y-119.0
X94.35Y-64.6
X94.6Y-125.1
X95.4Y-125.1
X96.9Y-124.7
X99.457Y-64.224
X99.8Y-102.0
X100.6Y-101.6
X100.75Y-108.9
X101.6Y-96.75
X101.85Y-101.15
X102.357Y-65.224
X102.501Y-110.082
X102.609Y-118.641
X102.899Y-119.851
X103.64Y-117.81
X103.831Y-118.919
X104.537Y-116.713
X104.75Y-118.0
X105.6Y-99.35
X105.9Y-93.7
X105.9Y-103.1
X105.9Y-108.55
X106.3Y-95.3
X106.3Y-96.1
X106.3Y-100.9
X106.3Y-101.6
X106.557Y-64.26
X108.0Y-83.1
X109.357Y-65.252
X110.4Y-83.1
X110.7Y-149.0
X110.9Y-97.1
X111.2Y-91.2
X111.2Y-94.1
X112.6Y-148.0
X114.0Y-105.75
X114.5Y-106.75
X118.259Y-94.059
X118.259Y-96.659
X118.3Y-91.2
T2
X38.5Y-109.7
X39.25Y-100.4
X44.85Y-98.9
X45.2Y-147.05
X45.2Y-148.9
X45.85Y-113.6
X45.9Y-95.5
X46.0Y-104.45
X46.5Y-108.017
X46.6Y-98.9
X47.785Y-88.85
X49.15Y-147.05
X49.15Y-148.85
X49.335Y-88.85
X50.4Y-98.9
X50.5Y-108.017
X56.135Y-110.9
X56.135Y-112.45
X56.185Y-101.8
X56.185Y-103.3
X56.535Y-92.8
X56.535Y-94.4
X63.1Y-105.4
X65.4Y-101.3
X65.95Y-111.15
X70.2Y-104.2
X70.2Y-111.15
X70.2Y-116.6
X70.25Y-112.75
X70.25Y-114.4
X70.356Y-117.587
X74.35Y-89.25
X76.45Y-103.75
X76.45Y-111.25
X76.75Y-113.65
X76.8Y-96.3
X76.9Y-120.6
X83.0Y-89.5
X83.25Y-96.3
X83.25Y-113.65
X83.5Y-121.05
X88.0Y-89.5
X88.25Y-96.3
X88.25Y-113.65
X88.4Y-120.9
X92.0Y-80.3
X93.85Y-96.75
X93.85Y-103.25
X93.85Y-108.75
X94.35Y-82.6
X95.1Y-78.7
X96.05Y-77.05
X96.9Y-120.95
X102.15Y-93.7
X102.15Y-102.8
X102.175Y-108.5
X105.779Y-77.1
X105.779Y-78.7
X105.779Y-80.3
X105.779Y-82.6
X105.779Y-83.95
X105.779Y-85.55
X115.6Y-102.5
X115.6Y-107.7
X116.2Y-111.7
X116.2Y-113.6
X116.6Y-101.6
X116.6Y-108.5
T3
X40.85Y-131.4
X40.85Y-133.7
X40.9Y-123.4
X40.9Y-125.7
X44.55Y-128.968
X44.6Y-121.168
X46.45Y-136.55
X48.7Y-125.7
X52.75Y-120.6
X52.75Y-126.15
X52.75Y-128.55
X52.75Y-134.15
X54.65Y-122.0
X54.65Y-124.5
X54.65Y-130.25
X54.65Y-132.45
X61.2Y-112.65
X61.35Y-116.5
X61.35Y-118.7
X62.875Y-110.525
X64.25Y-109.025
X65.9Y-114.55
X67.5Y-115.7
X98.85Y-75.55
X99.25Y-84.9
X100.779Y-75.55
X102.629Y-87.05
X102.654Y-75.55
X114.25Y-124.25
X118.65Y-122.95
X121.1Y-120.85
T5
X44.75Y-58.2
X44.75Y-65.2
X45.527Y-72.182
X45.527Y-74.182
X45.527Y-76.182
X45.527Y-78.182
X45.527Y-80.182
X46.75Y-58.2
X46.75Y-65.2
X51.027Y-72.182
X51.027Y-74.182
X51.027Y-76.182
X51.027Y-78.182
X51.027Y-80.182
X51.75Y-58.2
X51.75Y-65.2
X53.75Y-58.2
X53.75Y-65.2
X56.527Y-72.182
X56.527Y-74.182
X56.527Y-76.182
X56.527Y-78.182
X56.527Y-80.182
X58.75Y-58.2
X58.75Y-65.2
X60.75Y-58.2
X60.75Y-65.2
X61.5Y-144.25
X61.5Y-146.25
X61.5Y-148.25
X61.5Y-150.25
X62.027Y-72.182
X62.027Y-74.182
X62.027Y-76.182
X62.027Y-78.182
X62.027Y-80.182
X63.5Y-144.25
X63.5Y-146.25
X63.5Y-148.25
X63.5Y-150.25
X67.527Y-57.682
X67.527Y-59.682
X67.527Y-61.682
X67.527Y-63.682
X67.527Y-65.682
X67.527Y-72.182
X67.527Y-74.182
X67.527Y-76.182
X67.527Y-78.182
X67.527Y-80.182
X69.5Y-144.25
X69.5Y-146.25
X69.5Y-148.25
X69.5Y-150.25
X69.5Y-152.25
X73.027Y-57.682
X73.027Y-59.682
X73.027Y-61.682
X73.027Y-63.682
X73.027Y-65.682
X73.027Y-72.182
X73.027Y-74.182
X73.027Y-76.182
X73.027Y-78.182
X73.027Y-80.182
X75.0Y-144.25
X75.0Y-146.25
X75.0Y-148.25
X75.0Y-150.25
X75.0Y-152.25
X78.527Y-57.682
X78.527Y-59.682
X78.527Y-61.682
X78.527Y-63.682
X78.527Y-65.682
X78.527Y-72.182
X78.527Y-74.182
X78.527Y-76.182
X78.527Y-78.182
X78.527Y-80.182
X80.5Y-144.25
X80.5Y-146.25
X80.5Y-148.25
X80.5Y-150.25
X80.5Y-152.25
X84.0Y-57.75
X84.0Y-59.75
X84.0Y-61.75
X84.0Y-63.75
X84.0Y-72.25
X84.0Y-74.25
X84.0Y-76.25
X84.0Y-78.25
X86.0Y-57.75
X86.0Y-59.75
X86.0Y-61.75
X86.0Y-63.75
X86.0Y-72.25
X86.0Y-74.25
X86.0Y-76.25
X86.0Y-78.25
X86.0Y-144.25
X86.0Y-146.25
X86.0Y-148.25
X86.0Y-150.25
X86.0Y-152.25
X91.5Y-144.25
X91.5Y-146.25
X91.5Y-148.25
X91.5Y-150.25
X91.5Y-152.25
X96.25Y-144.25
X96.25Y-146.25
X96.25Y-148.25
X96.25Y-150.25
X98.25Y-144.25
X98.25Y-146.25
X98.25Y-148.25
X98.25Y-150.25
T6
X60.549Y-131.698
X60.549Y-134.238
X63.089Y-131.698
X63.089Y-134.238
X65.629Y-131.698
X65.629Y-134.238
X68.169Y-131.698
X68.169Y-134.238
X70.709Y-131.698
X70.709Y-134.238
X73.249Y-131.698
X73.249Y-134.238
X75.789Y-131.698
X75.789Y-134.238
X78.329Y-131.698
X78.329Y-134.238
X80.869Y-131.698
X80.869Y-134.238
X83.409Y-131.698
X83.409Y-134.238
X85.949Y-131.698
X85.949Y-134.238
X88.489Y-131.698
X88.489Y-134.238
X91.029Y-131.698
X91.029Y-134.238
X93.569Y-131.698
X93.569Y-134.238
X96.109Y-131.698
X96.109Y-134.238
X98.649Y-131.698
X98.649Y-134.238
X101.189Y-131.698
X101.189Y-134.238
X103.729Y-131.698
X103.729Y-134.238
X106.269Y-131.698
X106.269Y-134.238
X108.809Y-131.698
X108.809Y-134.238
T7
X30.4Y-91.4
X30.4Y-94.4
X30.4Y-97.4
X30.4Y-100.4
X30.4Y-103.4
X30.4Y-106.4
X30.4Y-109.4
X30.4Y-112.4
X30.4Y-115.4
X30.4Y-118.4
X33.4Y-91.4
X33.4Y-94.4
X33.4Y-97.4
X33.4Y-100.4
X33.4Y-103.4
X33.4Y-106.4
X33.4Y-109.4
X33.4Y-112.4
X33.4Y-115.4
X33.4Y-118.4
T8
X31.0Y-61.0
X31.0Y-149.0
X119.0Y-61.0
X119.0Y-149.0
T4
G00X118.32Y-100.68
M15
G01X119.42Y-100.68
M16
G05
G00X118.32Y-109.32
M15
G01X119.42Y-109.32
M16
G05
G00X122.75Y-100.68
M15
G01X123.35Y-100.68
M16
G05
G00X122.75Y-109.32
M15
G01X123.35Y-109.32
M16
G05
M30
